<svg width="10" height="18" viewBox="0 0 10 18" fill="none" xmlns="http://www.w3.org/2000/svg">
<path d="M0.707813 15.3904L0.701782 15.3974L0.696282 15.4048C0.405673 15.7965 0.437714 16.3519 0.792893 16.7071C1.18342 17.0976 1.81658 17.0976 2.20711 16.7071L9.20711 9.70711L9.21358 9.70063L9.21957 9.6937L9.29219 9.60958L9.29822 9.60259L9.30372 9.59518C9.59433 9.20351 9.56228 8.64807 9.20711 8.29289L2.20711 1.29289L2.20063 1.28642L2.1937 1.28043L2.10958 1.20781L2.10259 1.20178L2.09518 1.19628C1.70351 0.905673 1.14807 0.937715 0.792893 1.29289L0.786417 1.29937L0.780432 1.3063L0.707814 1.39042L0.701782 1.39741L0.696282 1.40482C0.405673 1.79649 0.437714 2.35193 0.792893 2.70711L7.08546 9L0.792889 15.2929L0.786414 15.2994L0.780431 15.3063L0.707813 15.3904Z" fill="#94A3B8" stroke="#94A3B8" stroke-width="0.5"/>
</svg>
