<svg width="18" height="18" viewBox="0 0 18 18" fill="none" xmlns="http://www.w3.org/2000/svg">
<path d="M6 9.1499H11.25" stroke="#747679" stroke-miterlimit="10" stroke-linecap="round" stroke-linejoin="round"/>
<path d="M6 12.1499H9.285" stroke="#747679" stroke-miterlimit="10" stroke-linecap="round" stroke-linejoin="round"/>
<path d="M7.5 4.5H10.5C12 4.5 12 3.75 12 3C12 1.5 11.25 1.5 10.5 1.5H7.5C6.75 1.5 6 1.5 6 3C6 4.5 6.75 4.5 7.5 4.5Z" stroke="#747679" stroke-miterlimit="10" stroke-linecap="round" stroke-linejoin="round"/>
<path d="M12 3.01514C14.4975 3.15014 15.75 4.07264 15.75 7.50014V12.0001C15.75 15.0001 15 16.5001 11.25 16.5001H6.75C3 16.5001 2.25 15.0001 2.25 12.0001V7.50014C2.25 4.08014 3.5025 3.15014 6 3.01514" stroke="#747679" stroke-miterlimit="10" stroke-linecap="round" stroke-linejoin="round"/>
</svg>
