<svg width="36" height="36" viewBox="0 0 36 36" fill="none" xmlns="http://www.w3.org/2000/svg">
<path opacity="0.4" d="M10.14 33H25.86C30 33 31.65 30.465 31.845 27.375L32.625 14.985C32.835 11.745 30.255 9 27 9C26.085 9 25.245 8.475 24.825 7.665L23.745 5.49C23.055 4.125 21.255 3 19.725 3H16.29C14.745 3 12.945 4.125 12.255 5.49L11.175 7.665C10.755 8.475 9.91501 9 9.00001 9C5.74501 9 3.16501 11.745 3.37501 14.985L4.15501 27.375C4.33501 30.465 6.00001 33 10.14 33Z" fill="#26A59A"/>
<path d="M20.25 13.125H15.75C15.135 13.125 14.625 12.615 14.625 12C14.625 11.385 15.135 10.875 15.75 10.875H20.25C20.865 10.875 21.375 11.385 21.375 12C21.375 12.615 20.865 13.125 20.25 13.125Z" fill="#26A59A"/>
<path d="M17.9999 27.195C20.8 27.195 23.0699 24.9251 23.0699 22.125C23.0699 19.3249 20.8 17.055 17.9999 17.055C15.1998 17.055 12.9299 19.3249 12.9299 22.125C12.9299 24.9251 15.1998 27.195 17.9999 27.195Z" fill="#26A59A"/>
</svg>
