<svg width="330" height="223" viewBox="0 0 330 223" fill="none" xmlns="http://www.w3.org/2000/svg">
<rect width="301.141" height="154.973" rx="16" transform="matrix(0.970123 -0.242612 0.241234 0.970467 0 73.0604)" fill="#F5BFC8"/>
<rect x="15.2041" y="35.8398" width="303.082" height="160" rx="16" fill="#19224C"/>
<mask id="mask0_62_2542" style="mask-type:alpha" maskUnits="userSpaceOnUse" x="15" y="35" width="304" height="161">
<rect x="15.2041" y="35.8398" width="303.082" height="160" rx="16" fill="white"/>
</mask>
<g mask="url(#mask0_62_2542)">
<path opacity="0.40442" fill-rule="evenodd" clip-rule="evenodd" d="M15.2041 50.8398V184.842C15.2041 195.335 24.2928 203.84 35.5043 203.84H321.195C333.157 165.77 295.767 121.878 147.084 100.028C65.4703 88.0339 18.1172 75.4903 15.2041 50.8398ZM11.2162 22.8398V174.359C11.2162 186.223 20.3049 195.84 31.5164 195.84H317.207C329.169 152.793 291.779 103.165 143.097 78.4579C61.4824 64.8959 14.1293 50.7125 11.2162 22.8398ZM15.4958 37.8398C15.5958 37.1609 15.7344 36.4936 15.9095 35.8398C15.7438 36.5147 15.606 37.1813 15.4958 37.8398Z" fill="#434665"/>
</g>
<path fill-rule="evenodd" clip-rule="evenodd" d="M282.692 79.8389C280.724 81.5024 278.172 82.5065 275.384 82.5065C269.161 82.5065 264.117 77.507 264.117 71.3399C264.117 65.1726 269.161 60.1732 275.384 60.1732C278.172 60.1732 280.724 61.1773 282.692 62.8407C284.659 61.1773 287.211 60.1732 290 60.1732C296.223 60.1732 301.267 65.1726 301.267 71.3399C301.267 77.507 296.223 82.5065 290 82.5065C287.211 82.5065 284.659 81.5024 282.692 79.8389Z" fill="#ED0006"/>
<path fill-rule="evenodd" clip-rule="evenodd" d="M282.692 79.8389C285.114 77.7907 286.651 74.743 286.651 71.3399C286.651 67.9366 285.114 64.8889 282.692 62.8407C284.659 61.1773 287.211 60.1732 290 60.1732C296.223 60.1732 301.267 65.1726 301.267 71.3399C301.267 77.507 296.223 82.5065 290 82.5065C287.211 82.5065 284.659 81.5024 282.692 79.8389Z" fill="#F9A000"/>
<path fill-rule="evenodd" clip-rule="evenodd" d="M282.692 79.8389C285.114 77.7907 286.651 74.7431 286.651 71.3399C286.651 67.9367 285.114 64.889 282.692 62.8408C280.269 64.889 278.733 67.9367 278.733 71.3399C278.733 74.7431 280.269 77.7907 282.692 79.8389Z" fill="#FF5E00"/>
<path d="M36.7277 120.152V118.184H45.6557V120.152H36.7277ZM54.2824 120.152V118.184H63.2104V120.152H54.2824ZM71.8371 120.152V118.184H80.7651V120.152H71.8371ZM89.3918 120.152V118.184H98.3198V120.152H89.3918Z" fill="white"/>
<path d="M39.3737 155.02C38.707 155.02 38.137 154.903 37.6637 154.67C37.197 154.437 36.8204 154.133 36.5337 153.76C36.247 153.387 36.037 152.983 35.9037 152.55C35.7704 152.11 35.7037 151.687 35.7037 151.28V151.06C35.7037 150.62 35.7704 150.18 35.9037 149.74C36.0437 149.3 36.257 148.9 36.5437 148.54C36.8304 148.18 37.2037 147.89 37.6637 147.67C38.1237 147.45 38.6737 147.34 39.3137 147.34C39.967 147.34 40.527 147.453 40.9937 147.68C41.4604 147.907 41.8304 148.223 42.1037 148.63C42.377 149.037 42.5437 149.517 42.6037 150.07H41.6037C41.5504 149.657 41.417 149.317 41.2037 149.05C40.9904 148.777 40.7204 148.573 40.3937 148.44C40.0737 148.307 39.7137 148.24 39.3137 148.24C38.8804 148.24 38.5004 148.317 38.1737 148.47C37.847 148.617 37.5737 148.827 37.3537 149.1C37.1404 149.367 36.977 149.677 36.8637 150.03C36.757 150.383 36.7037 150.767 36.7037 151.18C36.7037 151.573 36.757 151.947 36.8637 152.3C36.977 152.653 37.1437 152.967 37.3637 153.24C37.5904 153.513 37.8704 153.73 38.2037 153.89C38.537 154.043 38.927 154.12 39.3737 154.12C40.0004 154.12 40.527 153.963 40.9537 153.65C41.3804 153.337 41.6404 152.883 41.7337 152.29H42.7337C42.667 152.79 42.497 153.247 42.2237 153.66C41.957 154.073 41.5837 154.403 41.1037 154.65C40.6304 154.897 40.0537 155.02 39.3737 155.02ZM47.2429 154.84V153.24H47.0829V151.39C47.0829 151.023 46.9863 150.747 46.7929 150.56C46.6063 150.373 46.3296 150.28 45.9629 150.28C45.7563 150.28 45.5429 150.283 45.3229 150.29C45.1029 150.297 44.8929 150.303 44.6929 150.31C44.4929 150.317 44.3196 150.327 44.1729 150.34V149.5C44.3196 149.487 44.4729 149.477 44.6329 149.47C44.7996 149.457 44.9696 149.45 45.1429 149.45C45.3163 149.443 45.4829 149.44 45.6429 149.44C46.1896 149.44 46.6363 149.507 46.9829 149.64C47.3296 149.767 47.5863 149.977 47.7529 150.27C47.9196 150.563 48.0029 150.96 48.0029 151.46V154.84H47.2429ZM45.4929 154.98C45.0929 154.98 44.7463 154.913 44.4529 154.78C44.1663 154.64 43.9429 154.44 43.7829 154.18C43.6296 153.92 43.5529 153.607 43.5529 153.24C43.5529 152.86 43.6363 152.543 43.8029 152.29C43.9763 152.037 44.2263 151.847 44.5529 151.72C44.8796 151.587 45.2729 151.52 45.7329 151.52H47.1829V152.24H45.6929C45.3063 152.24 45.0096 152.333 44.8029 152.52C44.5963 152.707 44.4929 152.947 44.4929 153.24C44.4929 153.533 44.5963 153.77 44.8029 153.95C45.0096 154.13 45.3063 154.22 45.6929 154.22C45.9196 154.22 46.1363 154.18 46.3429 154.1C46.5496 154.013 46.7196 153.873 46.8529 153.68C46.9929 153.48 47.0696 153.207 47.0829 152.86L47.3429 153.24C47.3096 153.62 47.2163 153.94 47.0629 154.2C46.9163 154.453 46.7096 154.647 46.4429 154.78C46.1829 154.913 45.8663 154.98 45.4929 154.98ZM49.7649 154.84V149.5H50.5249V151.7H50.4849C50.4849 150.92 50.6549 150.35 50.9949 149.99C51.3415 149.623 51.8582 149.44 52.5449 149.44H52.7249V150.3H52.3849C51.8515 150.3 51.4415 150.443 51.1549 150.73C50.8682 151.01 50.7249 151.417 50.7249 151.95V154.84H49.7649ZM56.0378 155.02C55.6578 155.02 55.3078 154.95 54.9878 154.81C54.6678 154.67 54.3878 154.473 54.1478 154.22C53.9145 153.967 53.7312 153.673 53.5978 153.34C53.4712 153.007 53.4078 152.647 53.4078 152.26V152.08C53.4078 151.7 53.4712 151.343 53.5978 151.01C53.7245 150.677 53.9012 150.383 54.1278 150.13C54.3612 149.877 54.6345 149.68 54.9478 149.54C55.2678 149.393 55.6212 149.32 56.0078 149.32C56.4145 149.32 56.7845 149.407 57.1178 149.58C57.4512 149.747 57.7245 150.01 57.9378 150.37C58.1512 150.73 58.2712 151.197 58.2978 151.77L57.8978 151.13V147.54H58.8578V154.84H58.0978V152.47H58.3778C58.3512 153.077 58.2245 153.57 57.9978 153.95C57.7712 154.323 57.4845 154.597 57.1378 154.77C56.7978 154.937 56.4312 155.02 56.0378 155.02ZM56.1678 154.18C56.4945 154.18 56.7912 154.107 57.0578 153.96C57.3245 153.813 57.5378 153.603 57.6978 153.33C57.8578 153.05 57.9378 152.723 57.9378 152.35V151.89C57.9378 151.523 57.8545 151.213 57.6878 150.96C57.5278 150.7 57.3112 150.503 57.0378 150.37C56.7712 150.23 56.4778 150.16 56.1578 150.16C55.8045 150.16 55.4912 150.243 55.2178 150.41C54.9512 150.577 54.7412 150.81 54.5878 151.11C54.4412 151.41 54.3678 151.763 54.3678 152.17C54.3678 152.577 54.4445 152.933 54.5978 153.24C54.7512 153.54 54.9645 153.773 55.2378 153.94C55.5112 154.1 55.8212 154.18 56.1678 154.18ZM60.7024 154.84V147.54H61.6624V151.9H61.4224C61.4224 151.373 61.489 150.92 61.6224 150.54C61.7624 150.153 61.9757 149.857 62.2624 149.65C62.549 149.443 62.9157 149.34 63.3624 149.34H63.4024C64.0424 149.34 64.5257 149.553 64.8524 149.98C65.179 150.4 65.3424 151.003 65.3424 151.79V154.84H64.3824V151.59C64.3824 151.157 64.259 150.82 64.0124 150.58C63.7724 150.34 63.459 150.22 63.0724 150.22C62.6457 150.22 62.3024 150.363 62.0424 150.65C61.789 150.93 61.6624 151.3 61.6624 151.76V154.84H60.7024ZM69.5589 155.02C69.0922 155.02 68.6822 154.94 68.3289 154.78C67.9755 154.62 67.6755 154.41 67.4289 154.15C67.1889 153.883 67.0055 153.587 66.8789 153.26C66.7589 152.933 66.6989 152.6 66.6989 152.26V152.08C66.6989 151.74 66.7622 151.407 66.8889 151.08C67.0155 150.747 67.2022 150.45 67.4489 150.19C67.6955 149.923 67.9955 149.713 68.3489 149.56C68.7022 149.4 69.1055 149.32 69.5589 149.32C70.0122 149.32 70.4155 149.4 70.7689 149.56C71.1222 149.713 71.4222 149.923 71.6689 150.19C71.9155 150.45 72.1022 150.747 72.2289 151.08C72.3555 151.407 72.4189 151.74 72.4189 152.08V152.26C72.4189 152.6 72.3555 152.933 72.2289 153.26C72.1089 153.587 71.9255 153.883 71.6789 154.15C71.4389 154.41 71.1422 154.62 70.7889 154.78C70.4355 154.94 70.0255 155.02 69.5589 155.02ZM69.5589 154.16C69.9589 154.16 70.2989 154.073 70.5789 153.9C70.8655 153.72 71.0822 153.48 71.2289 153.18C71.3822 152.88 71.4589 152.543 71.4589 152.17C71.4589 151.79 71.3822 151.45 71.2289 151.15C71.0755 150.85 70.8555 150.613 70.5689 150.44C70.2889 150.267 69.9522 150.18 69.5589 150.18C69.1722 150.18 68.8355 150.267 68.5489 150.44C68.2622 150.613 68.0422 150.85 67.8889 151.15C67.7355 151.45 67.6589 151.79 67.6589 152.17C67.6589 152.543 67.7322 152.88 67.8789 153.18C68.0322 153.48 68.2489 153.72 68.5289 153.9C68.8155 154.073 69.1589 154.16 69.5589 154.16ZM73.9167 154.84V147.54H74.8767V154.84H73.9167ZM73.1767 148.3V147.54H74.8767V148.3H73.1767ZM78.948 155.02C78.568 155.02 78.218 154.95 77.898 154.81C77.578 154.67 77.298 154.473 77.058 154.22C76.8247 153.967 76.6413 153.673 76.508 153.34C76.3813 153.007 76.318 152.647 76.318 152.26V152.08C76.318 151.7 76.3813 151.343 76.508 151.01C76.6347 150.677 76.8113 150.383 77.038 150.13C77.2713 149.877 77.5447 149.68 77.858 149.54C78.178 149.393 78.5313 149.32 78.918 149.32C79.3247 149.32 79.6947 149.407 80.028 149.58C80.3613 149.747 80.6347 150.01 80.848 150.37C81.0613 150.73 81.1813 151.197 81.208 151.77L80.808 151.13V147.54H81.768V154.84H81.008V152.47H81.288C81.2613 153.077 81.1347 153.57 80.908 153.95C80.6813 154.323 80.3947 154.597 80.048 154.77C79.708 154.937 79.3413 155.02 78.948 155.02ZM79.078 154.18C79.4047 154.18 79.7013 154.107 79.968 153.96C80.2347 153.813 80.448 153.603 80.608 153.33C80.768 153.05 80.848 152.723 80.848 152.35V151.89C80.848 151.523 80.7647 151.213 80.598 150.96C80.438 150.7 80.2213 150.503 79.948 150.37C79.6813 150.23 79.388 150.16 79.068 150.16C78.7147 150.16 78.4013 150.243 78.128 150.41C77.8613 150.577 77.6513 150.81 77.498 151.11C77.3513 151.41 77.278 151.763 77.278 152.17C77.278 152.577 77.3547 152.933 77.508 153.24C77.6613 153.54 77.8747 153.773 78.148 153.94C78.4213 154.1 78.7313 154.18 79.078 154.18ZM85.8825 155.02C85.4159 155.02 85.0125 154.94 84.6725 154.78C84.3325 154.62 84.0559 154.41 83.8425 154.15C83.6292 153.883 83.4692 153.587 83.3625 153.26C83.2625 152.933 83.2125 152.6 83.2125 152.26V152.08C83.2125 151.733 83.2625 151.397 83.3625 151.07C83.4692 150.743 83.6292 150.45 83.8425 150.19C84.0559 149.923 84.3259 149.713 84.6525 149.56C84.9859 149.4 85.3759 149.32 85.8225 149.32C86.4025 149.32 86.8792 149.447 87.2525 149.7C87.6325 149.947 87.9125 150.267 88.0925 150.66C88.2792 151.053 88.3725 151.473 88.3725 151.92V152.35H83.6325V151.63H87.6725L87.4525 152.02C87.4525 151.64 87.3925 151.313 87.2725 151.04C87.1525 150.76 86.9725 150.543 86.7325 150.39C86.4925 150.237 86.1892 150.16 85.8225 150.16C85.4425 150.16 85.1259 150.247 84.8725 150.42C84.6259 150.593 84.4392 150.83 84.3125 151.13C84.1925 151.43 84.1325 151.777 84.1325 152.17C84.1325 152.55 84.1925 152.893 84.3125 153.2C84.4392 153.5 84.6325 153.74 84.8925 153.92C85.1525 154.093 85.4825 154.18 85.8825 154.18C86.3025 154.18 86.6425 154.087 86.9025 153.9C87.1692 153.713 87.3292 153.497 87.3825 153.25H88.2825C88.2092 153.617 88.0625 153.933 87.8425 154.2C87.6225 154.467 87.3459 154.67 87.0125 154.81C86.6792 154.95 86.3025 155.02 85.8825 155.02ZM89.7356 154.84V149.5H90.4956V151.7H90.4556C90.4556 150.92 90.6256 150.35 90.9656 149.99C91.3122 149.623 91.8289 149.44 92.5156 149.44H92.6956V150.3H92.3556C91.8222 150.3 91.4122 150.443 91.1256 150.73C90.8389 151.01 90.6956 151.417 90.6956 151.95V154.84H89.7356ZM96.1125 154.84V149.5H96.8725V151.79H96.7525C96.7525 151.263 96.8225 150.82 96.9625 150.46C97.1092 150.093 97.3292 149.817 97.6225 149.63C97.9159 149.437 98.2859 149.34 98.7325 149.34H98.7725C99.4459 149.34 99.9425 149.55 100.263 149.97C100.589 150.39 100.753 150.997 100.753 151.79V154.84H99.7925V151.59C99.7925 151.177 99.6759 150.847 99.4425 150.6C99.2092 150.347 98.8892 150.22 98.4825 150.22C98.0625 150.22 97.7225 150.35 97.4625 150.61C97.2025 150.87 97.0725 151.217 97.0725 151.65V154.84H96.1125ZM105.739 154.84V153.24H105.579V151.39C105.579 151.023 105.482 150.747 105.289 150.56C105.102 150.373 104.826 150.28 104.459 150.28C104.252 150.28 104.039 150.283 103.819 150.29C103.599 150.297 103.389 150.303 103.189 150.31C102.989 150.317 102.816 150.327 102.669 150.34V149.5C102.816 149.487 102.969 149.477 103.129 149.47C103.296 149.457 103.466 149.45 103.639 149.45C103.812 149.443 103.979 149.44 104.139 149.44C104.686 149.44 105.132 149.507 105.479 149.64C105.826 149.767 106.082 149.977 106.249 150.27C106.416 150.563 106.499 150.96 106.499 151.46V154.84H105.739ZM103.989 154.98C103.589 154.98 103.242 154.913 102.949 154.78C102.662 154.64 102.439 154.44 102.279 154.18C102.126 153.92 102.049 153.607 102.049 153.24C102.049 152.86 102.132 152.543 102.299 152.29C102.472 152.037 102.722 151.847 103.049 151.72C103.376 151.587 103.769 151.52 104.229 151.52H105.679V152.24H104.189C103.802 152.24 103.506 152.333 103.299 152.52C103.092 152.707 102.989 152.947 102.989 153.24C102.989 153.533 103.092 153.77 103.299 153.95C103.506 154.13 103.802 154.22 104.189 154.22C104.416 154.22 104.632 154.18 104.839 154.1C105.046 154.013 105.216 153.873 105.349 153.68C105.489 153.48 105.566 153.207 105.579 152.86L105.839 153.24C105.806 153.62 105.712 153.94 105.559 154.2C105.412 154.453 105.206 154.647 104.939 154.78C104.679 154.913 104.362 154.98 103.989 154.98ZM108.261 154.84V149.5H109.021V151.79H108.901C108.901 151.27 108.968 150.83 109.101 150.47C109.241 150.103 109.448 149.823 109.721 149.63C109.994 149.437 110.341 149.34 110.761 149.34H110.801C111.221 149.34 111.568 149.437 111.841 149.63C112.121 149.823 112.328 150.103 112.461 150.47C112.594 150.83 112.661 151.27 112.661 151.79H112.381C112.381 151.27 112.451 150.83 112.591 150.47C112.731 150.103 112.938 149.823 113.211 149.63C113.491 149.437 113.841 149.34 114.261 149.34H114.301C114.721 149.34 115.071 149.437 115.351 149.63C115.631 149.823 115.838 150.103 115.971 150.47C116.111 150.83 116.181 151.27 116.181 151.79V154.84H115.221V151.58C115.221 151.147 115.114 150.813 114.901 150.58C114.688 150.34 114.391 150.22 114.011 150.22C113.618 150.22 113.301 150.347 113.061 150.6C112.821 150.847 112.701 151.193 112.701 151.64V154.84H111.741V151.58C111.741 151.147 111.634 150.813 111.421 150.58C111.208 150.34 110.911 150.22 110.531 150.22C110.138 150.22 109.821 150.347 109.581 150.6C109.341 150.847 109.221 151.193 109.221 151.64V154.84H108.261ZM120.209 155.02C119.742 155.02 119.339 154.94 118.999 154.78C118.659 154.62 118.382 154.41 118.169 154.15C117.955 153.883 117.795 153.587 117.689 153.26C117.589 152.933 117.539 152.6 117.539 152.26V152.08C117.539 151.733 117.589 151.397 117.689 151.07C117.795 150.743 117.955 150.45 118.169 150.19C118.382 149.923 118.652 149.713 118.979 149.56C119.312 149.4 119.702 149.32 120.149 149.32C120.729 149.32 121.205 149.447 121.579 149.7C121.959 149.947 122.239 150.267 122.419 150.66C122.605 151.053 122.699 151.473 122.699 151.92V152.35H117.959V151.63H121.999L121.779 152.02C121.779 151.64 121.719 151.313 121.599 151.04C121.479 150.76 121.299 150.543 121.059 150.39C120.819 150.237 120.515 150.16 120.149 150.16C119.769 150.16 119.452 150.247 119.199 150.42C118.952 150.593 118.765 150.83 118.639 151.13C118.519 151.43 118.459 151.777 118.459 152.17C118.459 152.55 118.519 152.893 118.639 153.2C118.765 153.5 118.959 153.74 119.219 153.92C119.479 154.093 119.809 154.18 120.209 154.18C120.629 154.18 120.969 154.087 121.229 153.9C121.495 153.713 121.655 153.497 121.709 153.25H122.609C122.535 153.617 122.389 153.933 122.169 154.2C121.949 154.467 121.672 154.67 121.339 154.81C121.005 154.95 120.629 155.02 120.209 155.02Z" fill="#9D97B1"/>
<path d="M218.651 154.84V147.54H219.631V154.84H218.651ZM219.431 154.84V153.96H222.971V154.84H219.431ZM219.431 151.57V150.69H222.661V151.57H219.431ZM219.431 148.42V147.54H222.871V148.42H219.431ZM223.867 154.84L225.777 152.03L225.747 152.23L223.957 149.5H225.017L226.307 151.51H226.447L227.667 149.5H228.657L226.967 152.16L226.997 151.98L228.997 154.84H227.937L226.437 152.67H226.297L224.857 154.84H223.867ZM230.103 156.84V149.5H230.863V151.81L230.683 151.79C230.716 151.217 230.836 150.75 231.043 150.39C231.256 150.023 231.533 149.753 231.873 149.58C232.213 149.407 232.583 149.32 232.983 149.32C233.369 149.32 233.719 149.393 234.033 149.54C234.353 149.687 234.626 149.887 234.853 150.14C235.079 150.393 235.253 150.687 235.373 151.02C235.493 151.353 235.553 151.707 235.553 152.08V152.26C235.553 152.633 235.489 152.987 235.363 153.32C235.236 153.653 235.056 153.947 234.823 154.2C234.596 154.453 234.323 154.653 234.003 154.8C233.689 154.947 233.343 155.02 232.963 155.02C232.583 155.02 232.219 154.937 231.873 154.77C231.526 154.603 231.239 154.333 231.013 153.96C230.786 153.587 230.656 153.097 230.623 152.49L231.063 153.29V156.84H230.103ZM232.813 154.18C233.173 154.18 233.486 154.097 233.753 153.93C234.019 153.757 234.226 153.52 234.373 153.22C234.519 152.913 234.593 152.563 234.593 152.17C234.593 151.77 234.519 151.42 234.373 151.12C234.226 150.82 234.019 150.587 233.753 150.42C233.486 150.247 233.173 150.16 232.813 150.16C232.493 150.16 232.196 150.233 231.923 150.38C231.649 150.52 231.429 150.727 231.263 151C231.103 151.267 231.023 151.59 231.023 151.97V152.43C231.023 152.797 231.106 153.11 231.273 153.37C231.439 153.63 231.659 153.83 231.933 153.97C232.206 154.11 232.499 154.18 232.813 154.18ZM237.257 154.84V149.5H238.217V154.84H237.257ZM236.437 150.26V149.5H238.217V150.26H236.437ZM237.527 148.64C237.314 148.64 237.154 148.583 237.047 148.47C236.947 148.357 236.897 148.213 236.897 148.04C236.897 147.867 236.947 147.723 237.047 147.61C237.154 147.497 237.314 147.44 237.527 147.44C237.74 147.44 237.897 147.497 237.997 147.61C238.104 147.723 238.157 147.867 238.157 148.04C238.157 148.213 238.104 148.357 237.997 148.47C237.897 148.583 237.74 148.64 237.527 148.64ZM240.073 154.84V149.5H240.833V151.7H240.793C240.793 150.92 240.963 150.35 241.303 149.99C241.65 149.623 242.167 149.44 242.853 149.44H243.033V150.3H242.693C242.16 150.3 241.75 150.443 241.463 150.73C241.177 151.01 241.033 151.417 241.033 151.95V154.84H240.073ZM246.386 155.02C245.92 155.02 245.516 154.94 245.176 154.78C244.836 154.62 244.56 154.41 244.346 154.15C244.133 153.883 243.973 153.587 243.866 153.26C243.766 152.933 243.716 152.6 243.716 152.26V152.08C243.716 151.733 243.766 151.397 243.866 151.07C243.973 150.743 244.133 150.45 244.346 150.19C244.56 149.923 244.83 149.713 245.156 149.56C245.49 149.4 245.88 149.32 246.326 149.32C246.906 149.32 247.383 149.447 247.756 149.7C248.136 149.947 248.416 150.267 248.596 150.66C248.783 151.053 248.876 151.473 248.876 151.92V152.35H244.136V151.63H248.176L247.956 152.02C247.956 151.64 247.896 151.313 247.776 151.04C247.656 150.76 247.476 150.543 247.236 150.39C246.996 150.237 246.693 150.16 246.326 150.16C245.946 150.16 245.63 150.247 245.376 150.42C245.13 150.593 244.943 150.83 244.816 151.13C244.696 151.43 244.636 151.777 244.636 152.17C244.636 152.55 244.696 152.893 244.816 153.2C244.943 153.5 245.136 153.74 245.396 153.92C245.656 154.093 245.986 154.18 246.386 154.18C246.806 154.18 247.146 154.087 247.406 153.9C247.673 153.713 247.833 153.497 247.886 153.25H248.786C248.713 153.617 248.566 153.933 248.346 154.2C248.126 154.467 247.85 154.67 247.516 154.81C247.183 154.95 246.806 155.02 246.386 155.02ZM251.989 155C251.289 155 250.746 154.85 250.359 154.55C249.979 154.25 249.783 153.84 249.769 153.32H250.669C250.683 153.527 250.786 153.723 250.979 153.91C251.179 154.09 251.516 154.18 251.989 154.18C252.416 154.18 252.743 154.097 252.969 153.93C253.196 153.757 253.309 153.547 253.309 153.3C253.309 153.08 253.226 152.91 253.059 152.79C252.893 152.663 252.623 152.58 252.249 152.54L251.669 152.48C251.163 152.427 250.749 152.277 250.429 152.03C250.109 151.777 249.949 151.423 249.949 150.97C249.949 150.63 250.036 150.34 250.209 150.1C250.383 149.853 250.623 149.667 250.929 149.54C251.236 149.407 251.589 149.34 251.989 149.34C252.589 149.34 253.076 149.473 253.449 149.74C253.823 150.007 254.016 150.403 254.029 150.93H253.129C253.123 150.717 253.023 150.537 252.829 150.39C252.643 150.237 252.363 150.16 251.989 150.16C251.616 150.16 251.333 150.237 251.139 150.39C250.946 150.543 250.849 150.737 250.849 150.97C250.849 151.17 250.916 151.33 251.049 151.45C251.189 151.57 251.416 151.647 251.729 151.68L252.309 151.74C252.883 151.8 253.343 151.96 253.689 152.22C254.036 152.473 254.209 152.833 254.209 153.3C254.209 153.633 254.113 153.93 253.919 154.19C253.733 154.443 253.473 154.643 253.139 154.79C252.806 154.93 252.423 155 251.989 155Z" fill="#9D97B1"/>
<path d="M36.1997 169.048V167.736H42.1517V169.048H36.1997Z" fill="white"/>
<path d="M218.647 169.048V167.736H224.599V169.048H218.647ZM226.053 173.8L229.317 160.36H230.757L227.493 173.8H226.053ZM232.209 169.048V167.736H238.161V169.048H232.209Z" fill="white"/>
</svg>
