<svg width="36" height="36" viewBox="0 0 36 36" fill="none" xmlns="http://www.w3.org/2000/svg">
<path opacity="0.4" d="M33 11.715V20.85L30.555 18.75C29.385 17.745 27.495 17.745 26.325 18.75L20.085 24.105C18.915 25.11 17.025 25.11 15.855 24.105L15.345 23.685C14.28 22.755 12.585 22.665 11.385 23.475L4.005 28.425L3.84 28.545C3.285 27.345 3 25.92 3 24.285V11.715C3 6.255 6.255 3 11.715 3H24.285C29.745 3 33 6.255 33 11.715Z" fill="#26A59A"/>
<path d="M13.4999 15.57C15.4716 15.57 17.0699 13.9716 17.0699 12C17.0699 10.0283 15.4716 8.42999 13.4999 8.42999C11.5283 8.42999 9.92993 10.0283 9.92993 12C9.92993 13.9716 11.5283 15.57 13.4999 15.57Z" fill="#26A59A"/>
<path d="M33.0001 20.85V24.285C33.0001 29.745 29.7451 33 24.2851 33H11.7151C7.89009 33 5.13009 31.395 3.84009 28.545L4.00509 28.425L11.3851 23.475C12.5851 22.665 14.2801 22.755 15.3451 23.685L15.8551 24.105C17.0251 25.11 18.9151 25.11 20.0851 24.105L26.3251 18.75C27.4951 17.745 29.3851 17.745 30.5551 18.75L33.0001 20.85Z" fill="#26A59A"/>
</svg>
