<svg width="22" height="22" viewBox="0 0 22 22" fill="none" xmlns="http://www.w3.org/2000/svg">
<path d="M14.5 6.5625L18 3.0625M20 1.0625L18 3.0625L20 1.0625ZM10.39 10.6725C10.9064 11.182 11.3168 11.7885 11.5978 12.4573C11.8787 13.126 12.0246 13.8438 12.0271 14.5691C12.0295 15.2945 11.8884 16.0132 11.6119 16.6838C11.3355 17.3544 10.9291 17.9637 10.4162 18.4766C9.90326 18.9896 9.29395 19.3959 8.62333 19.6724C7.95271 19.9489 7.23403 20.09 6.50866 20.0875C5.7833 20.0851 5.06557 19.9392 4.39682 19.6583C3.72807 19.3773 3.1215 18.9668 2.61203 18.4505C1.61016 17.4132 1.05579 16.0239 1.06832 14.5818C1.08085 13.1397 1.65928 11.7602 2.67903 10.7405C3.69877 9.72075 5.07824 9.14232 6.52032 9.12979C7.96241 9.11726 9.35172 9.67163 10.389 10.6735L10.39 10.6725ZM10.39 10.6725L14.5 6.5625L10.39 10.6725ZM14.5 6.5625L17.5 9.5625L21 6.0625L18 3.0625L14.5 6.5625Z" stroke="#94A3B8" stroke-width="2" stroke-linecap="round" stroke-linejoin="round"/>
</svg>
