<svg width="89" height="28" viewBox="0 0 89 28" fill="none" xmlns="http://www.w3.org/2000/svg">
<path fill-rule="evenodd" clip-rule="evenodd" d="M13.8803 6.53316C13.8803 7.96906 12.3624 9.02547 10.988 7.87675C9.93166 6.36906 10.8957 4.70752 12.2085 4.70752C13.1316 4.70752 13.8803 5.52803 13.8803 6.53316Z" fill="#EB2027"/>
<path fill-rule="evenodd" clip-rule="evenodd" d="M13.8804 24.441C13.8804 25.4564 13.1317 26.2666 12.2086 26.2666C11.2855 26.2666 10.5368 25.4461 10.5368 24.441C10.5368 23.4256 11.2855 22.6153 12.2086 22.6153C13.1317 22.6051 13.8804 23.4256 13.8804 24.441Z" fill="#EB2027"/>
<path fill-rule="evenodd" clip-rule="evenodd" d="M9.83933 19.8053C9.83933 20.8207 9.09061 21.631 8.16753 21.631C7.24446 21.631 6.49574 20.8105 6.49574 19.8053C6.49574 18.79 7.24446 17.9797 8.16753 17.9797C9.76753 17.9797 10.5368 17.672 10.5368 15.5387C10.5368 13.5079 9.90087 12.79 8.16753 12.79C6.21881 12.79 5.7983 13.7643 5.7983 15.5387C5.7983 16.5541 5.04958 17.3643 4.12651 17.3643C3.20343 17.3643 2.45471 16.5438 2.45471 15.5387C2.45471 14.5335 3.20343 13.713 4.12651 13.713C5.85984 13.713 6.49574 12.9951 6.49574 10.9643C6.49574 9.94893 7.24446 9.12842 8.16753 9.12842C9.09061 9.12842 9.83933 9.94893 9.83933 10.9541C9.83933 12.7182 10.2599 13.7028 12.2086 13.7028C13.9419 13.7028 14.5778 12.9848 14.5778 10.9541C14.5778 9.93867 15.3265 9.12842 16.2496 9.12842C17.1727 9.12842 17.9214 9.94893 17.9214 10.9541C17.9214 12.9848 18.5573 13.7028 20.2907 13.7028C21.2137 13.7028 21.9624 14.5233 21.9624 15.5284C21.9624 16.5335 21.2137 17.3541 20.2907 17.3541C19.3676 17.3541 18.6189 16.5335 18.6189 15.5284C18.6189 13.7643 18.1983 12.7797 16.2496 12.7797C14.3009 12.7797 13.8804 13.7541 13.8804 15.5284C13.8804 17.6618 14.6394 17.9694 16.2496 17.9694C17.1727 17.9694 17.9214 18.79 17.9214 19.7951C17.9214 20.8105 17.1727 21.6207 16.2496 21.6207C15.3265 21.6207 14.5778 20.8002 14.5778 19.7951C14.5778 17.8771 14.0445 17.3541 12.2086 17.3541C10.3727 17.3541 9.83933 17.8874 9.83933 19.8053Z" fill="#1B3F73"/>
<path d="M36.3212 22.6152L36.4135 10.8409L31.3879 22.6152H30.5264L25.6751 10.8409V22.6152H24.0341L24.1161 7.07679L26.7725 6.5332L31.6546 17.9998L36.2905 7.07679L38.8853 6.78961L39.2033 22.605L36.3212 22.6152Z" fill="#1B3F73"/>
<path d="M52.3725 22.605L50.4751 17.3127L44.3828 17.3947L42.4238 22.605H40.3417L46.7417 7.05628L49.9315 6.5332L55.8905 22.605H52.3725ZM49.9622 15.8357L47.511 9.06654L44.9879 15.8357H49.9622Z" fill="#1B3F73"/>
<path d="M68.7727 22.5947L66.9163 17.3126L60.9881 17.3947L59.0804 22.5844H57.0496L63.2855 7.07679L66.3932 6.55371L72.1983 22.5947H68.7727ZM66.4137 15.8357L64.024 9.07679L61.5624 15.8357H66.4137Z" fill="#EB2027"/>
<path d="M79.9112 22.5844C78.5368 22.5844 77.3778 22.3896 76.4137 21.9896C75.4496 21.5896 74.6804 21.0357 74.0753 20.328C73.4804 19.6203 73.0394 18.7588 72.7624 17.7639C72.4855 16.7691 72.3522 15.6511 72.3522 14.4306C72.3522 13.446 72.4855 12.5639 72.7522 11.7947C73.0188 11.0255 73.3778 10.3383 73.8394 9.76397C74.3009 9.17935 74.8342 8.68705 75.4394 8.27679C76.0445 7.86653 76.6804 7.53833 77.3573 7.28192C78.024 7.02551 78.7214 6.84089 79.4189 6.72807C80.1266 6.61525 80.8137 6.55371 81.4804 6.55371C81.8907 6.55371 82.3317 6.56397 82.7932 6.58448C83.2548 6.60499 83.6958 6.63576 84.1266 6.67679C84.5573 6.71781 84.9676 6.75884 85.3368 6.81012C85.7061 6.8614 86.0138 6.91269 86.2599 6.95371L85.6035 9.17935C85.3676 9.10756 85.0189 9.04602 84.5881 8.96397C84.1471 8.89217 83.6753 8.82038 83.183 8.74858C82.6804 8.67679 82.1881 8.62551 81.706 8.57423C81.224 8.5332 80.8137 8.50243 80.4958 8.50243C80.1368 8.50243 79.8189 8.51269 79.5419 8.52294C79.265 8.54346 79.0086 8.57423 78.7727 8.62551C78.5368 8.67679 78.3214 8.74858 78.1163 8.84089C77.9112 8.9332 77.6958 9.04602 77.4906 9.17935C76.9471 9.50756 76.5778 10.1332 76.383 11.046C76.1881 11.9588 76.0958 13.0973 76.0958 14.4716C76.0958 16.5742 76.465 18.1639 77.1932 19.2409C77.9214 20.3178 79.1009 20.8614 80.7317 20.8614C81.6548 20.8614 82.6086 20.7998 83.6035 20.6665C84.5984 20.5332 85.5112 20.3485 86.3214 20.1127V21.4152C85.8702 21.5998 85.3779 21.7537 84.8548 21.8973C84.3317 22.0409 83.7881 22.1537 83.2343 22.2562C82.6804 22.3485 82.1266 22.4306 81.5625 22.4716C80.9778 22.5537 80.4342 22.5844 79.9112 22.5844Z" fill="#1B3F73"/>
<path d="M26.0548 23.6309V25.2411H25.8291V24.0616C25.8291 24.0514 25.8291 24.0309 25.8291 24.0103C25.8291 23.9898 25.8291 23.9693 25.8291 23.9591L25.1624 24.9642C25.1419 24.995 25.1112 25.0155 25.0701 25.0155H25.0291C24.9881 25.0155 24.9573 24.995 24.9368 24.9642L24.2599 23.9488C24.2701 23.9898 24.2701 24.0206 24.2701 24.0616V25.2411H24.0445V23.6309H24.2394C24.2599 23.6309 24.2804 23.6309 24.2906 23.6309C24.3009 23.6309 24.3214 23.6411 24.3317 23.6616L24.9983 24.6565C25.0086 24.677 25.0189 24.6975 25.0291 24.718C25.0394 24.7386 25.0496 24.7591 25.0599 24.7796C25.0701 24.7591 25.0804 24.7386 25.0906 24.718C25.1009 24.6975 25.1112 24.677 25.1214 24.6565L25.7778 23.6719C25.7881 23.6514 25.7983 23.6411 25.8086 23.6411C25.8189 23.6411 25.8394 23.6411 25.8599 23.6411L26.0548 23.6309Z" fill="#58595B"/>
<path d="M28.1881 25.2411H27.9829C27.9624 25.2411 27.9419 25.2411 27.9214 25.2309C27.9112 25.2206 27.8906 25.2103 27.8906 25.1898L27.706 24.8001H26.8342L26.6496 25.1898C26.6394 25.2001 26.6291 25.2103 26.6188 25.2309C26.5983 25.2411 26.5881 25.2411 26.5573 25.2411H26.3522L27.1317 23.6309H27.3983L28.1881 25.2411ZM27.6342 24.6462L27.3265 23.9898C27.3163 23.9693 27.306 23.9488 27.2958 23.918C27.2855 23.8873 27.2753 23.8668 27.265 23.836C27.2445 23.8975 27.224 23.9488 27.2035 23.9898L26.8958 24.6462H27.6342Z" fill="#58595B"/>
<path d="M29.9317 25.2411H29.6958C29.6445 25.2411 29.6137 25.2309 29.5932 25.1898L29.0907 24.6155C29.0701 24.595 29.0599 24.5847 29.0394 24.5745C29.0189 24.5642 28.9984 24.5642 28.9573 24.5642H28.7625V25.2309H28.506V23.6206H29.0599C29.183 23.6206 29.2855 23.6309 29.3778 23.6514C29.4701 23.6719 29.5419 23.7027 29.6035 23.7437C29.665 23.7847 29.706 23.8257 29.7368 23.8873C29.7676 23.9386 29.7778 24.0001 29.7778 24.0719C29.7778 24.1334 29.7676 24.1847 29.7471 24.236C29.7265 24.2873 29.6958 24.3283 29.6548 24.3693C29.6137 24.4104 29.5624 24.4411 29.5009 24.4719C29.4394 24.5027 29.3778 24.5232 29.2958 24.5334C29.3266 24.5437 29.3573 24.5745 29.3778 24.6052L29.9317 25.2411ZM29.0394 24.4104C29.1112 24.4104 29.183 24.4001 29.2445 24.3898C29.306 24.3796 29.3471 24.3488 29.3881 24.3283C29.4291 24.2975 29.4599 24.2668 29.4804 24.2257C29.5009 24.1847 29.5112 24.1437 29.5112 24.0924C29.5112 24.0001 29.4701 23.9283 29.3983 23.877C29.3266 23.8257 29.2035 23.8052 29.0599 23.8052H28.7727V24.4104H29.0394Z" fill="#58595B"/>
<path d="M30.506 24.3386H30.6086C30.6394 24.3386 30.6701 24.3386 30.6906 24.3283C30.7112 24.318 30.7317 24.3078 30.7522 24.2873L31.3983 23.6821C31.4188 23.6616 31.4394 23.6514 31.4599 23.6411C31.4804 23.6309 31.5009 23.6309 31.5317 23.6309H31.7573L31.0188 24.3283C30.9983 24.3488 30.9881 24.3591 30.9676 24.3693C30.9471 24.3796 30.9368 24.3898 30.9163 24.4001C30.9368 24.4103 30.9676 24.4206 30.9881 24.4309C31.0086 24.4411 31.0291 24.4616 31.0496 24.4821L31.8188 25.2411H31.5932C31.5727 25.2411 31.5624 25.2411 31.5522 25.2411C31.5419 25.2411 31.5317 25.2411 31.5214 25.2309C31.5112 25.2309 31.5009 25.2206 31.5009 25.2206C31.4906 25.2206 31.4906 25.2103 31.4804 25.2001L30.8137 24.5642C30.7932 24.5437 30.7727 24.5334 30.7522 24.5232C30.7317 24.5129 30.7009 24.5129 30.6599 24.5129H30.5368V25.2514H30.2804V23.6411H30.5368L30.506 24.3386Z" fill="#58595B"/>
<path d="M33.2958 25.0668V25.2411H32.0958V23.6309H33.2958V23.8052H32.3624V24.3386H33.1214V24.5129H32.3624V25.0668H33.2958Z" fill="#58595B"/>
<path d="M35.0291 23.8155H34.4035V25.2411H34.1471V23.8155H33.5112V23.6309H35.0291V23.8155Z" fill="#58595B"/>
<path d="M37.5318 25.2411H37.3267C37.3062 25.2411 37.2857 25.2411 37.2652 25.2309C37.2446 25.2206 37.2344 25.2103 37.2344 25.1898L37.0498 24.8001H36.178L35.9934 25.1898C35.9831 25.2001 35.9728 25.2103 35.9626 25.2309C35.9421 25.2411 35.9318 25.2411 35.9011 25.2411H35.6959L36.4754 23.6309H36.7421L37.5318 25.2411ZM36.978 24.6462L36.6703 23.9898C36.66 23.9693 36.6498 23.9488 36.6395 23.918C36.6293 23.8873 36.619 23.8668 36.6087 23.836C36.5882 23.8975 36.5677 23.9488 36.5472 23.9898L36.2395 24.6462H36.978Z" fill="#58595B"/>
<path d="M39.152 24.9129C39.1622 24.9129 39.1827 24.9129 39.193 24.9232L39.2956 25.0155C39.2135 25.0873 39.1212 25.1488 39.0084 25.1898C38.8956 25.2309 38.7622 25.2514 38.5981 25.2514C38.4545 25.2514 38.3315 25.2309 38.2186 25.1898C38.1058 25.1488 38.0033 25.0975 37.9315 25.0257C37.8494 24.9539 37.7879 24.8719 37.7468 24.7693C37.7058 24.6668 37.675 24.5539 37.675 24.4411C37.675 24.318 37.6956 24.2052 37.7468 24.1129C37.7879 24.0103 37.8597 23.9283 37.9417 23.8565C38.0238 23.7847 38.1263 23.7232 38.2392 23.6924C38.352 23.6514 38.4853 23.6309 38.6289 23.6309C38.7725 23.6309 38.8853 23.6514 38.9981 23.6821C39.1007 23.7232 39.193 23.7642 39.275 23.836L39.193 23.9386C39.1827 23.9488 39.1827 23.9488 39.1725 23.9591C39.1622 23.9591 39.152 23.9693 39.1417 23.9693C39.1212 23.9693 39.1109 23.9591 39.0802 23.9488C39.0597 23.9386 39.0289 23.918 38.9879 23.8975C38.9468 23.877 38.9058 23.8668 38.8443 23.8462C38.7827 23.836 38.7212 23.8257 38.6391 23.8257C38.5366 23.8257 38.4443 23.836 38.3622 23.8668C38.2802 23.8975 38.2084 23.9386 38.1468 23.9898C38.0853 24.0411 38.0443 24.1129 38.0033 24.1847C37.9725 24.2668 37.952 24.3488 37.952 24.4514C37.952 24.5539 37.9725 24.6462 38.0033 24.718C38.034 24.8001 38.0853 24.8616 38.1468 24.9129C38.2084 24.9642 38.2802 25.0052 38.3622 25.036C38.4443 25.0668 38.5366 25.077 38.6289 25.077C38.6904 25.077 38.7417 25.077 38.7827 25.0668C38.834 25.0668 38.875 25.0565 38.9161 25.036C38.9571 25.0257 38.9879 25.0052 39.0289 24.995C39.0597 24.9744 39.1007 24.9539 39.1315 24.9334C39.1212 24.9129 39.1417 24.9129 39.152 24.9129Z" fill="#58595B"/>
<path d="M40.9777 24.9129C40.988 24.9129 41.0085 24.9129 41.0188 24.9232L41.1213 25.0155C41.0393 25.0873 40.947 25.1488 40.8341 25.1898C40.7213 25.2309 40.588 25.2514 40.4239 25.2514C40.2803 25.2514 40.1572 25.2309 40.0444 25.1898C39.9316 25.1488 39.829 25.0975 39.7572 25.0257C39.6752 24.9539 39.6136 24.8719 39.5726 24.7693C39.5316 24.6668 39.5008 24.5539 39.5008 24.4411C39.5008 24.318 39.5213 24.2052 39.5726 24.1129C39.6136 24.0103 39.6854 23.9283 39.7675 23.8565C39.8495 23.7847 39.9521 23.7232 40.0649 23.6924C40.1777 23.6514 40.3111 23.6309 40.4546 23.6309C40.5982 23.6309 40.7111 23.6514 40.8239 23.6821C40.9264 23.7232 41.0188 23.7642 41.1008 23.836L41.0188 23.9386C41.0085 23.9488 41.0085 23.9488 40.9982 23.9591C40.988 23.9591 40.9777 23.9693 40.9675 23.9693C40.947 23.9693 40.9367 23.9591 40.9059 23.9488C40.8854 23.9386 40.8547 23.918 40.8136 23.8975C40.7726 23.877 40.7316 23.8668 40.67 23.8462C40.6085 23.836 40.547 23.8257 40.4649 23.8257C40.3623 23.8257 40.27 23.836 40.188 23.8668C40.1059 23.8975 40.0341 23.9386 39.9726 23.9898C39.9111 24.0411 39.87 24.1129 39.829 24.1847C39.7982 24.2668 39.7777 24.3488 39.7777 24.4514C39.7777 24.5539 39.7982 24.6462 39.829 24.718C39.8598 24.8001 39.9111 24.8616 39.9726 24.9129C40.0341 24.9642 40.1059 25.0052 40.188 25.036C40.27 25.0668 40.3623 25.077 40.4546 25.077C40.5162 25.077 40.5675 25.077 40.6085 25.0668C40.6598 25.0668 40.7008 25.0565 40.7418 25.036C40.7829 25.0257 40.8136 25.0052 40.8546 24.995C40.8854 24.9744 40.9264 24.9539 40.9572 24.9334C40.947 24.9129 40.9675 24.9129 40.9777 24.9129Z" fill="#58595B"/>
<path d="M42.6804 25.0668V25.2411H41.4804V23.6309H42.6804V23.8052H41.7471V24.3386H42.506V24.5129H41.7471V25.0668H42.6804Z" fill="#58595B"/>
<path d="M44.0959 23.8873C44.0857 23.8975 44.0754 23.9078 44.0651 23.9078C44.0549 23.9078 44.0446 23.9181 44.0344 23.9181C44.0139 23.9181 44.0036 23.9078 43.9831 23.8975C43.9626 23.8873 43.9318 23.8668 43.901 23.8565C43.8703 23.8463 43.8292 23.8257 43.7882 23.8155C43.7472 23.8052 43.6959 23.795 43.6241 23.795C43.5626 23.795 43.5113 23.8052 43.4703 23.8155C43.4293 23.8257 43.3882 23.8463 43.3575 23.8668C43.3267 23.8873 43.3062 23.9181 43.2857 23.9488C43.2652 23.9796 43.2652 24.0104 43.2652 24.0514C43.2652 24.0924 43.2754 24.1334 43.3062 24.1642C43.3369 24.195 43.3677 24.2155 43.4087 24.236C43.4498 24.2565 43.501 24.277 43.5523 24.2873C43.6036 24.2975 43.6651 24.3181 43.7267 24.3386C43.7882 24.3591 43.8395 24.3693 43.901 24.3898C43.9523 24.4104 44.0036 24.4411 44.0446 24.4719C44.0857 24.5027 44.1267 24.5437 44.1472 24.5847C44.178 24.6257 44.1882 24.6873 44.1882 24.7488C44.1882 24.8206 44.178 24.8822 44.1472 24.9437C44.1164 25.0052 44.0754 25.0565 44.0241 25.1078C43.9728 25.1488 43.901 25.1899 43.819 25.2206C43.7369 25.2514 43.6446 25.2617 43.5421 25.2617C43.419 25.2617 43.2959 25.2411 43.1934 25.2001C43.0908 25.1591 42.9985 25.1078 42.9267 25.0463L42.9985 24.9437C43.0087 24.9334 43.019 24.9334 43.0293 24.9232C43.0395 24.9232 43.0498 24.9129 43.06 24.9129C43.0703 24.9129 43.0908 24.9129 43.1011 24.9232C43.1216 24.9334 43.1318 24.9437 43.1523 24.954C43.1728 24.9642 43.1934 24.9745 43.2139 24.995C43.2344 25.0052 43.2652 25.0258 43.2959 25.036C43.3267 25.0463 43.3677 25.0565 43.3985 25.0668C43.4395 25.077 43.4805 25.077 43.5318 25.077C43.5934 25.077 43.6549 25.0668 43.6959 25.0565C43.7472 25.0463 43.7882 25.0258 43.819 24.995C43.8498 24.9642 43.8805 24.9334 43.901 24.9027C43.9216 24.8616 43.9318 24.8309 43.9318 24.7796C43.9318 24.7283 43.9216 24.6873 43.8908 24.6565C43.86 24.6257 43.8292 24.595 43.7882 24.5745C43.7472 24.554 43.6959 24.5334 43.6446 24.5232C43.5934 24.5129 43.5318 24.4924 43.4703 24.4822C43.4087 24.4719 43.3575 24.4514 43.2959 24.4309C43.2344 24.4104 43.1934 24.3796 43.1523 24.3488C43.1113 24.3181 43.0703 24.277 43.0498 24.2257C43.019 24.1745 43.0087 24.1129 43.0087 24.0411C43.0087 23.9796 43.019 23.9283 43.0498 23.877C43.0805 23.8257 43.1113 23.7745 43.1626 23.7334C43.2139 23.6924 43.2754 23.6616 43.3472 23.6309C43.419 23.6104 43.5113 23.5898 43.6036 23.5898C43.7164 23.5898 43.8087 23.6001 43.901 23.6309C43.9933 23.6616 44.0651 23.7027 44.1369 23.7539L44.0959 23.8873Z" fill="#58595B"/>
<path d="M45.6136 23.8873C45.6033 23.8975 45.5931 23.9078 45.5828 23.9078C45.5725 23.9078 45.5623 23.9181 45.552 23.9181C45.5315 23.9181 45.5213 23.9078 45.5007 23.8975C45.4802 23.8873 45.4495 23.8668 45.4187 23.8565C45.3879 23.8463 45.3469 23.8257 45.3059 23.8155C45.2648 23.8052 45.2136 23.795 45.1418 23.795C45.0802 23.795 45.0289 23.8052 44.9879 23.8155C44.9469 23.8257 44.9059 23.8463 44.8751 23.8668C44.8443 23.8873 44.8238 23.9181 44.8033 23.9488C44.7828 23.9796 44.7828 24.0104 44.7828 24.0514C44.7828 24.0924 44.7931 24.1334 44.8238 24.1642C44.8546 24.195 44.8854 24.2155 44.9264 24.236C44.9674 24.2565 45.0187 24.277 45.07 24.2873C45.1213 24.2975 45.1828 24.3181 45.2443 24.3386C45.3059 24.3591 45.3572 24.3693 45.4187 24.3898C45.47 24.4104 45.5213 24.4411 45.5623 24.4719C45.6033 24.5027 45.6443 24.5437 45.6648 24.5847C45.6956 24.6257 45.7059 24.6873 45.7059 24.7488C45.7059 24.8206 45.6956 24.8822 45.6648 24.9437C45.6341 25.0052 45.5931 25.0565 45.5418 25.1078C45.4905 25.1488 45.4187 25.1899 45.3366 25.2206C45.2546 25.2514 45.1623 25.2617 45.0597 25.2617C44.9366 25.2617 44.8136 25.2411 44.711 25.2001C44.6084 25.1591 44.5161 25.1078 44.4443 25.0463L44.5161 24.9437C44.5264 24.9334 44.5366 24.9334 44.5469 24.9232C44.5572 24.9232 44.5674 24.9129 44.5777 24.9129C44.5879 24.9129 44.6084 24.9129 44.6187 24.9232C44.6392 24.9334 44.6495 24.9437 44.67 24.954C44.6905 24.9642 44.711 24.9745 44.7315 24.995C44.752 25.0052 44.7828 25.0258 44.8136 25.036C44.8443 25.0463 44.8854 25.0565 44.9161 25.0668C44.9572 25.077 44.9982 25.077 45.0495 25.077C45.111 25.077 45.1725 25.0668 45.2136 25.0565C45.2648 25.0463 45.3059 25.0258 45.3366 24.995C45.3674 24.9642 45.3982 24.9334 45.4187 24.9027C45.4392 24.8616 45.4495 24.8309 45.4495 24.7796C45.4495 24.7283 45.4392 24.6873 45.4084 24.6565C45.3777 24.6257 45.3469 24.595 45.3059 24.5745C45.2648 24.554 45.2136 24.5334 45.1623 24.5232C45.111 24.5129 45.0495 24.4924 44.9879 24.4822C44.9264 24.4719 44.8751 24.4514 44.8136 24.4309C44.7623 24.4104 44.711 24.3796 44.67 24.3488C44.629 24.3181 44.5879 24.277 44.5674 24.2257C44.5469 24.1745 44.5264 24.1129 44.5264 24.0411C44.5264 23.9796 44.5366 23.9283 44.5674 23.877C44.5982 23.8257 44.6289 23.7745 44.6802 23.7334C44.7315 23.6924 44.7931 23.6616 44.8648 23.6309C44.9366 23.6104 45.029 23.5898 45.1213 23.5898C45.2341 23.5898 45.3264 23.6001 45.4187 23.6309C45.511 23.6616 45.5828 23.7027 45.6546 23.7539L45.6136 23.8873Z" fill="#58595B"/>
<path d="M48.3828 25.2411H48.1776C48.1571 25.2411 48.1366 25.2411 48.1161 25.2309C48.0956 25.2206 48.0853 25.2103 48.0853 25.1898L47.9007 24.8001H47.0289L46.8443 25.1898C46.8341 25.2001 46.8238 25.2103 46.8135 25.2309C46.793 25.2411 46.7828 25.2411 46.752 25.2411H46.5469L47.3264 23.6309H47.593L48.3828 25.2411ZM47.8392 24.6462L47.5315 23.9898C47.5212 23.9693 47.511 23.9488 47.5007 23.918C47.4905 23.8873 47.4802 23.8668 47.47 23.836C47.4494 23.8975 47.4289 23.9488 47.4084 23.9898L47.1007 24.6462H47.8392Z" fill="#58595B"/>
<path d="M50.2702 23.6309V25.2411H50.1368C50.1163 25.2411 50.0958 25.2411 50.0855 25.2309C50.0753 25.2206 50.0548 25.2104 50.0445 25.2001L48.9163 23.9898C48.9163 24.0103 48.9163 24.0309 48.9163 24.0411C48.9163 24.0514 48.9163 24.0719 48.9163 24.0924V25.2411H48.6907V23.6309H48.824C48.8343 23.6309 48.8445 23.6309 48.8548 23.6309C48.865 23.6309 48.8753 23.6309 48.8753 23.6309C48.8855 23.6309 48.8855 23.6411 48.8958 23.6411C48.9061 23.6411 48.9061 23.6514 48.9163 23.6616L50.0445 24.8719C50.0445 24.8514 50.0445 24.8309 50.0445 24.8104C50.0445 24.7898 50.0445 24.7796 50.0445 24.7591V23.6206L50.2702 23.6309Z" fill="#58595B"/>
<path d="M52.4036 25.2411H52.1985C52.1779 25.2411 52.1574 25.2411 52.1369 25.2309C52.1164 25.2206 52.1061 25.2103 52.1061 25.1898L51.9215 24.8001H51.0497L50.8651 25.1898C50.8549 25.2001 50.8446 25.2103 50.8344 25.2309C50.8138 25.2411 50.8036 25.2411 50.7728 25.2411H50.5677L51.3472 23.6309H51.6138L52.4036 25.2411ZM51.8497 24.6462L51.542 23.9898C51.5318 23.9693 51.5215 23.9488 51.5113 23.918C51.501 23.8873 51.4908 23.8668 51.4805 23.836C51.46 23.8975 51.4395 23.9488 51.419 23.9898L51.1113 24.6462H51.8497Z" fill="#58595B"/>
<path d="M53.8086 25.0565V25.2411H52.7112V23.6309H52.9676V25.0565H53.8086Z" fill="#58595B"/>
<path d="M54.629 24.6052V25.2514H54.3624V24.6052L53.6547 23.6411H53.8803C53.9008 23.6411 53.9213 23.6411 53.9316 23.6514C53.9418 23.6616 53.9624 23.6719 53.9624 23.6924L54.4034 24.318C54.4239 24.3488 54.4341 24.3693 54.4444 24.3898C54.4547 24.4103 54.4752 24.4411 54.4752 24.4616C54.4854 24.4411 54.4957 24.4103 54.5059 24.3898C54.5162 24.3693 54.5367 24.3385 54.547 24.318L54.988 23.6924C54.9982 23.6821 55.0085 23.6719 55.0188 23.6616C55.029 23.6514 55.0495 23.6514 55.07 23.6514H55.3059L54.629 24.6052Z" fill="#58595B"/>
<path d="M56.9574 23.8155H56.3318V25.2411H56.0754V23.8155H55.4395V23.6309H56.9574V23.8155Z" fill="#58595B"/>
<path d="M57.5623 25.2411H57.2957V23.6309H57.5623V25.2411Z" fill="#58595B"/>
<path d="M59.4805 24.9129C59.4908 24.9129 59.5113 24.9129 59.5216 24.9232L59.6241 25.0155C59.5421 25.0873 59.4498 25.1488 59.3369 25.1898C59.2241 25.2309 59.0908 25.2514 58.9267 25.2514C58.7831 25.2514 58.66 25.2309 58.5472 25.1898C58.4344 25.1488 58.3318 25.0975 58.26 25.0257C58.178 24.9539 58.1164 24.8719 58.0754 24.7693C58.0344 24.6668 58.0036 24.5539 58.0036 24.4411C58.0036 24.318 58.0241 24.2052 58.0754 24.1129C58.1164 24.0103 58.1882 23.9283 58.2703 23.8565C58.3523 23.7847 58.4549 23.7232 58.5677 23.6924C58.6805 23.6514 58.8139 23.6309 58.9575 23.6309C59.101 23.6309 59.2139 23.6514 59.3267 23.6821C59.4293 23.7232 59.5216 23.7642 59.6036 23.836L59.5216 23.9386C59.5113 23.9488 59.5113 23.9488 59.5011 23.9591C59.4908 23.9591 59.4805 23.9693 59.4703 23.9693C59.4498 23.9693 59.4395 23.9591 59.4087 23.9488C59.3882 23.9386 59.3575 23.918 59.3164 23.8975C59.2754 23.877 59.2344 23.8668 59.1728 23.8462C59.1113 23.8257 59.0498 23.8257 58.9677 23.8257C58.8651 23.8257 58.7728 23.836 58.6908 23.8668C58.6087 23.8975 58.5369 23.9386 58.4754 23.9898C58.4139 24.0411 58.3728 24.1129 58.3318 24.1847C58.301 24.2668 58.2805 24.3488 58.2805 24.4514C58.2805 24.5539 58.301 24.6462 58.3318 24.718C58.3626 24.8001 58.4139 24.8616 58.4754 24.9129C58.5369 24.9642 58.6087 25.0052 58.6908 25.036C58.7728 25.0668 58.8652 25.077 58.9575 25.077C59.019 25.077 59.0703 25.077 59.1113 25.0668C59.1626 25.0668 59.2036 25.0565 59.2446 25.036C59.2857 25.0257 59.3164 25.0052 59.3575 24.995C59.3985 24.9847 59.4293 24.9539 59.46 24.9334C59.4498 24.9129 59.46 24.9129 59.4805 24.9129Z" fill="#58595B"/>
<path d="M60.9677 23.8873C60.9574 23.8975 60.9472 23.9078 60.9369 23.9078C60.9267 23.9078 60.9164 23.9181 60.9061 23.9181C60.8856 23.9181 60.8754 23.9078 60.8549 23.8975C60.8344 23.8873 60.8036 23.8668 60.7728 23.8565C60.742 23.8463 60.701 23.8257 60.66 23.8155C60.619 23.8052 60.5677 23.795 60.4959 23.795C60.4344 23.795 60.3831 23.8052 60.342 23.8155C60.301 23.8257 60.26 23.8463 60.2292 23.8668C60.1985 23.8873 60.1779 23.9181 60.1574 23.9488C60.1369 23.9796 60.1369 24.0104 60.1369 24.0514C60.1369 24.0924 60.1472 24.1334 60.1779 24.1642C60.2087 24.195 60.2395 24.2155 60.2805 24.236C60.3215 24.2565 60.3728 24.277 60.4241 24.2873C60.4754 24.2975 60.5369 24.3181 60.5985 24.3386C60.66 24.3591 60.7113 24.3693 60.7728 24.3898C60.8241 24.4104 60.8754 24.4411 60.9164 24.4719C60.9574 24.5027 60.9984 24.5437 61.019 24.5847C61.0497 24.6257 61.06 24.6873 61.06 24.7488C61.06 24.8206 61.0497 24.8822 61.019 24.9437C60.9882 25.0052 60.9472 25.0565 60.8959 25.1078C60.8446 25.1488 60.7728 25.1899 60.6908 25.2206C60.6087 25.2514 60.5164 25.2617 60.4138 25.2617C60.2908 25.2617 60.1677 25.2411 60.0651 25.2001C59.9626 25.1591 59.8703 25.1078 59.7985 25.0463L59.8703 24.9437C59.8805 24.9334 59.8908 24.9334 59.901 24.9232C59.9113 24.9232 59.9215 24.9129 59.9318 24.9129C59.9421 24.9129 59.9626 24.9129 59.9728 24.9232C59.9933 24.9334 60.0036 24.9437 60.0241 24.954C60.0446 24.9642 60.0651 24.9745 60.0856 24.995C60.1062 25.0052 60.1369 25.0258 60.1677 25.036C60.1985 25.0463 60.2395 25.0565 60.2703 25.0668C60.3113 25.077 60.3523 25.077 60.4036 25.077C60.4651 25.077 60.5267 25.0668 60.5677 25.0565C60.619 25.0463 60.66 25.0258 60.6908 24.995C60.7215 24.9642 60.7523 24.9334 60.7728 24.9027C60.7933 24.8616 60.8036 24.8309 60.8036 24.7796C60.8036 24.7283 60.7933 24.6873 60.7626 24.6565C60.7318 24.6257 60.701 24.595 60.66 24.5745C60.619 24.554 60.5677 24.5334 60.5164 24.5232C60.4651 24.5129 60.4036 24.4924 60.342 24.4822C60.2805 24.4719 60.2292 24.4514 60.1677 24.4309C60.1062 24.4104 60.0651 24.3796 60.0241 24.3488C59.9831 24.3181 59.9421 24.277 59.9215 24.2257C59.901 24.1745 59.8805 24.1129 59.8805 24.0411C59.8805 23.9796 59.8908 23.9283 59.9215 23.877C59.9523 23.8257 59.9831 23.7745 60.0344 23.7334C60.0856 23.6924 60.1472 23.6616 60.219 23.6309C60.2908 23.6104 60.3831 23.5898 60.4754 23.5898C60.5882 23.5898 60.6805 23.6001 60.7728 23.6309C60.8651 23.6616 60.9369 23.7027 61.0087 23.7539L60.9677 23.8873Z" fill="#58595B"/>
<path d="M63.7369 25.2411H63.5318C63.5113 25.2411 63.4907 25.2411 63.4702 25.2309C63.46 25.2206 63.4395 25.2103 63.4395 25.1898L63.2548 24.8001H62.3831L62.1984 25.1898C62.1882 25.2001 62.1779 25.2103 62.1677 25.2309C62.1472 25.2411 62.1369 25.2411 62.1061 25.2411H61.901L62.6805 23.6309H62.9472L63.7369 25.2411ZM63.1933 24.6462L62.8856 23.9898C62.8754 23.9693 62.8651 23.9488 62.8548 23.918C62.8446 23.8873 62.8343 23.8668 62.8241 23.836C62.8036 23.8975 62.7831 23.9488 62.7625 23.9898L62.4548 24.6462H63.1933Z" fill="#58595B"/>
<path d="M65.624 23.6309V25.2411H65.4906C65.4701 25.2411 65.4496 25.2411 65.4394 25.2309C65.4291 25.2206 65.4086 25.2104 65.3983 25.2001L64.2701 23.9898C64.2701 24.0103 64.2701 24.0309 64.2701 24.0411C64.2701 24.0514 64.2701 24.0719 64.2701 24.0924V25.2411H64.0445V23.6309H64.1778C64.1881 23.6309 64.1983 23.6309 64.2086 23.6309C64.2189 23.6309 64.2291 23.6309 64.2291 23.6309C64.2394 23.6309 64.2394 23.6411 64.2496 23.6411C64.2599 23.6411 64.2599 23.6514 64.2701 23.6616L65.3983 24.8719C65.3983 24.8514 65.3983 24.8309 65.3983 24.8104C65.3983 24.7898 65.3983 24.7796 65.3983 24.7591V23.6206L65.624 23.6309Z" fill="#58595B"/>
<path d="M67.8598 24.4411C67.8598 24.5642 67.8393 24.6668 67.788 24.7693C67.747 24.8719 67.6752 24.9539 67.5931 25.0257C67.5111 25.0975 67.4085 25.1488 67.2854 25.1898C67.1624 25.2309 67.0393 25.2514 66.8957 25.2514H66.1675V23.6411H66.8957C67.0393 23.6411 67.1726 23.6616 67.2854 23.7027C67.4085 23.7437 67.5008 23.795 67.5931 23.8668C67.6752 23.9385 67.7367 24.0206 67.788 24.1232C67.829 24.2052 67.8598 24.318 67.8598 24.4411ZM67.5829 24.4411C67.5829 24.3385 67.5624 24.2565 67.5316 24.1744C67.5008 24.0924 67.4495 24.0309 67.388 23.9796C67.3265 23.9283 67.2547 23.8873 67.1726 23.8565C67.0906 23.8257 66.988 23.8155 66.8854 23.8155H66.4239V25.077H66.8854C66.988 25.077 67.0803 25.0668 67.1726 25.036C67.2547 25.0052 67.3265 24.9642 67.388 24.9129C67.4495 24.8616 67.4906 24.7898 67.5316 24.718C67.5726 24.6257 67.5829 24.5334 67.5829 24.4411Z" fill="#58595B"/>
<path d="M70.4036 24.9129C70.4138 24.9129 70.4344 24.9129 70.4446 24.9232L70.5472 25.0155C70.4651 25.0873 70.3728 25.1488 70.26 25.1898C70.1472 25.2309 70.0138 25.2514 69.8497 25.2514C69.7061 25.2514 69.5831 25.2309 69.4702 25.1898C69.3574 25.1488 69.2548 25.0975 69.1831 25.0257C69.101 24.9539 69.0395 24.8719 68.9984 24.7693C68.9574 24.6668 68.9266 24.5539 68.9266 24.4411C68.9266 24.318 68.9472 24.2052 68.9984 24.1129C69.0395 24.0103 69.1113 23.9283 69.1933 23.8565C69.2754 23.7847 69.3779 23.7232 69.4907 23.6924C69.6036 23.6514 69.7369 23.6309 69.8805 23.6309C70.0241 23.6309 70.1369 23.6514 70.2497 23.6821C70.3523 23.7232 70.4446 23.7642 70.5267 23.836L70.4446 23.9386C70.4344 23.9488 70.4344 23.9488 70.4241 23.9591C70.4138 23.9591 70.4036 23.9693 70.3933 23.9693C70.3728 23.9693 70.3626 23.9591 70.3318 23.9488C70.3113 23.9386 70.2805 23.918 70.2395 23.8975C70.1985 23.877 70.1574 23.8668 70.0959 23.8462C70.0343 23.836 69.9728 23.8257 69.8908 23.8257C69.7882 23.8257 69.6959 23.836 69.6138 23.8668C69.5318 23.8975 69.46 23.9386 69.3984 23.9898C69.3369 24.0411 69.2959 24.1129 69.2548 24.1847C69.2241 24.2668 69.2036 24.3488 69.2036 24.4514C69.2036 24.5539 69.2241 24.6462 69.2548 24.718C69.2856 24.8001 69.3369 24.8616 69.3984 24.9129C69.46 24.9642 69.5318 25.0052 69.6138 25.036C69.6959 25.0668 69.7882 25.077 69.8805 25.077C69.942 25.077 69.9933 25.077 70.0344 25.0668C70.0856 25.0668 70.1267 25.0565 70.1677 25.036C70.2087 25.0257 70.2395 25.0052 70.2805 24.995C70.3113 24.9744 70.3523 24.9539 70.3831 24.9334C70.3728 24.9129 70.3831 24.9129 70.4036 24.9129Z" fill="#58595B"/>
<path d="M72.6598 24.4411C72.6598 24.5642 72.6393 24.677 72.588 24.7693C72.547 24.8719 72.4752 24.9539 72.3931 25.0257C72.3111 25.0975 72.2085 25.1591 72.0854 25.1898C71.9623 25.2309 71.8393 25.2514 71.6957 25.2514C71.5521 25.2514 71.4187 25.2309 71.3059 25.1898C71.1931 25.1488 71.0905 25.0975 70.9982 25.0257C70.9162 24.9539 70.8546 24.8616 70.8034 24.7693C70.7623 24.6668 70.7316 24.5539 70.7316 24.4411C70.7316 24.3283 70.7521 24.2052 70.8034 24.1129C70.8444 24.0104 70.9162 23.9283 70.9982 23.8565C71.0803 23.7847 71.1828 23.7232 71.3059 23.6821C71.4187 23.6411 71.5521 23.6206 71.6957 23.6206C71.8393 23.6206 71.9726 23.6411 72.0854 23.6821C72.2085 23.7232 72.3008 23.7745 72.3931 23.8565C72.4752 23.9283 72.5367 24.0206 72.588 24.1129C72.6393 24.2052 72.6598 24.318 72.6598 24.4411ZM72.3829 24.4411C72.3829 24.3386 72.3623 24.2565 72.3316 24.1745C72.3008 24.0924 72.2495 24.0309 72.188 23.9796C72.1264 23.9283 72.0546 23.8873 71.9726 23.8565C71.8905 23.8257 71.788 23.8155 71.6854 23.8155C71.5829 23.8155 71.4905 23.8257 71.3982 23.8565C71.3162 23.8873 71.2444 23.9283 71.1829 23.9796C71.1213 24.0309 71.0803 24.1027 71.0393 24.1745C71.0085 24.2565 70.988 24.3386 70.988 24.4411C70.988 24.5437 71.0085 24.6257 71.0393 24.7078C71.07 24.7898 71.1213 24.8514 71.1829 24.9027C71.2444 24.9539 71.3162 24.995 71.3982 25.0257C71.4803 25.0565 71.5829 25.0668 71.6854 25.0668C71.788 25.0668 71.8803 25.0565 71.9726 25.0257C72.0649 24.995 72.1264 24.9539 72.188 24.9027C72.2495 24.8514 72.2905 24.7796 72.3316 24.7078C72.3726 24.6257 72.3829 24.5334 72.3829 24.4411Z" fill="#58595B"/>
<path d="M74.6599 23.6309V25.2411H74.5266C74.5061 25.2411 74.4856 25.2411 74.4753 25.2309C74.4651 25.2206 74.4446 25.2104 74.4343 25.2001L73.3061 23.9898C73.3061 24.0103 73.3061 24.0309 73.3061 24.0411C73.3061 24.0514 73.3061 24.0719 73.3061 24.0924V25.2411H73.0805V23.6309H73.2138C73.2241 23.6309 73.2344 23.6309 73.2446 23.6309C73.2549 23.6309 73.2651 23.6309 73.2651 23.6309C73.2754 23.6309 73.2754 23.6411 73.2856 23.6411C73.2959 23.6411 73.2959 23.6514 73.3061 23.6616L74.4343 24.8719C74.4343 24.8514 74.4343 24.8309 74.4343 24.8104C74.4343 24.7898 74.4343 24.7796 74.4343 24.7591V23.6206L74.6599 23.6309Z" fill="#58595B"/>
<path d="M76.1985 23.8873C76.1882 23.8975 76.178 23.9078 76.1677 23.9078C76.1575 23.9078 76.1472 23.9181 76.137 23.9181C76.1164 23.9181 76.1062 23.9078 76.0857 23.8975C76.0652 23.8873 76.0344 23.8668 76.0036 23.8565C75.9728 23.8463 75.9318 23.8257 75.8908 23.8155C75.8498 23.8052 75.7985 23.795 75.7267 23.795C75.6652 23.795 75.6139 23.8052 75.5728 23.8155C75.5318 23.8257 75.4908 23.8463 75.46 23.8668C75.4292 23.8873 75.4087 23.9181 75.3882 23.9488C75.3677 23.9796 75.3677 24.0104 75.3677 24.0514C75.3677 24.0924 75.378 24.1334 75.4087 24.1642C75.4395 24.195 75.4703 24.2155 75.5113 24.236C75.5523 24.2565 75.6036 24.277 75.6549 24.2873C75.7062 24.2975 75.7677 24.3181 75.8293 24.3386C75.8908 24.3591 75.9421 24.3693 76.0036 24.3898C76.0549 24.4104 76.1062 24.4411 76.1472 24.4719C76.1882 24.5027 76.2293 24.5437 76.2498 24.5847C76.2806 24.6257 76.2908 24.6873 76.2908 24.7488C76.2908 24.8206 76.2806 24.8822 76.2498 24.9437C76.219 25.0052 76.178 25.0565 76.1267 25.1078C76.0754 25.1488 76.0036 25.1899 75.9216 25.2206C75.8395 25.2514 75.7472 25.2617 75.6446 25.2617C75.5216 25.2617 75.3985 25.2411 75.2959 25.2001C75.1933 25.1591 75.101 25.1078 75.0292 25.0463L75.101 24.9437C75.1113 24.9334 75.1215 24.9334 75.1318 24.9232C75.1421 24.9232 75.1523 24.9129 75.1626 24.9129C75.1728 24.9129 75.1933 24.9129 75.2036 24.9232C75.2241 24.9334 75.2344 24.9437 75.2549 24.954C75.2754 24.9642 75.2959 24.9745 75.3164 24.995C75.3369 25.0052 75.3677 25.0258 75.3985 25.036C75.4292 25.0463 75.4703 25.0565 75.501 25.0668C75.5421 25.077 75.5831 25.077 75.6344 25.077C75.6959 25.077 75.7575 25.0668 75.7985 25.0565C75.8498 25.0463 75.8908 25.0258 75.9216 24.995C75.9523 24.9642 75.9831 24.9334 76.0036 24.9027C76.0241 24.8616 76.0344 24.8309 76.0344 24.7796C76.0344 24.7283 76.0241 24.6873 75.9934 24.6565C75.9626 24.6257 75.9318 24.595 75.8908 24.5745C75.8498 24.554 75.7985 24.5334 75.7472 24.5232C75.6959 24.5129 75.6344 24.4924 75.5728 24.4822C75.5113 24.4719 75.46 24.4514 75.3985 24.4309C75.3472 24.4104 75.2959 24.3796 75.2549 24.3488C75.2139 24.3181 75.1728 24.277 75.1523 24.2257C75.1215 24.1745 75.1113 24.1129 75.1113 24.0411C75.1113 23.9796 75.1215 23.9283 75.1523 23.877C75.1831 23.8257 75.2139 23.7745 75.2651 23.7334C75.3164 23.6924 75.378 23.6616 75.4498 23.6309C75.5216 23.6104 75.6139 23.5898 75.7062 23.5898C75.819 23.5898 75.9113 23.6001 76.0036 23.6309C76.0959 23.6616 76.1677 23.7027 76.2395 23.7539L76.1985 23.8873Z" fill="#58595B"/>
<path d="M77.4804 25.0668C77.5625 25.0668 77.6343 25.0565 77.6958 25.036C77.7573 25.0155 77.8086 24.9847 77.8599 24.9437C77.9009 24.9026 77.942 24.8514 77.9625 24.8001C77.983 24.7385 77.9933 24.677 77.9933 24.6155V23.6411H78.2497V24.6155C78.2497 24.7078 78.2292 24.8001 78.1984 24.8719C78.1676 24.9539 78.1163 25.0155 78.0445 25.077C77.9727 25.1385 77.9009 25.1796 77.7984 25.2103C77.7061 25.2411 77.5932 25.2616 77.4804 25.2616C77.3676 25.2616 77.2548 25.2411 77.1625 25.2103C77.0702 25.1796 76.9881 25.1283 76.9163 25.077C76.8445 25.0155 76.7932 24.9539 76.7625 24.8719C76.7317 24.7898 76.7112 24.7078 76.7112 24.6155V23.6411H76.9676V24.6155C76.9676 24.6873 76.9779 24.7488 76.9984 24.8001C77.0189 24.8616 77.0599 24.9026 77.1009 24.9437C77.142 24.9847 77.1932 25.0155 77.265 25.036C77.3368 25.0565 77.4086 25.0668 77.4804 25.0668Z" fill="#58595B"/>
<path d="M79.8803 25.0565V25.2411H78.7829V23.6309H79.0393V25.0565H79.8803Z" fill="#58595B"/>
<path d="M81.2855 23.8155H80.6599V25.2411H80.4035V23.8155H79.7676V23.6309H81.2855V23.8155Z" fill="#58595B"/>
<path d="M81.8907 25.2411H81.6343V23.6309H81.9009V25.2411H81.8907Z" fill="#58595B"/>
<path d="M84.0137 23.6309V25.2411H83.8804C83.8599 25.2411 83.8394 25.2411 83.8291 25.2309C83.8189 25.2206 83.7984 25.2104 83.7881 25.2001L82.6599 23.9898C82.6599 24.0103 82.6599 24.0309 82.6599 24.0411C82.6599 24.0514 82.6599 24.0719 82.6599 24.0924V25.2411H82.4343V23.6309H82.5676C82.5779 23.6309 82.5881 23.6309 82.5984 23.6309C82.6086 23.6309 82.6189 23.6309 82.6189 23.6309C82.6291 23.6309 82.6291 23.6411 82.6394 23.6411C82.6496 23.6411 82.6496 23.6514 82.6599 23.6616L83.7881 24.8719C83.7881 24.8514 83.7881 24.8309 83.7881 24.8104C83.7881 24.7898 83.7881 24.7796 83.7881 24.7591V23.6206L84.0137 23.6309Z" fill="#58595B"/>
<path d="M86.1472 24.4719V25.0873C86.0549 25.1488 85.9421 25.1898 85.8395 25.2206C85.7267 25.2514 85.6036 25.2616 85.4805 25.2616C85.3267 25.2616 85.1831 25.2411 85.06 25.2001C84.9369 25.1591 84.8241 25.1078 84.7421 25.036C84.66 24.9642 84.5882 24.8821 84.5369 24.7796C84.4857 24.677 84.4651 24.5642 84.4651 24.4514C84.4651 24.3283 84.4857 24.2155 84.5369 24.1129C84.5882 24.0103 84.6498 23.9283 84.7318 23.8565C84.8139 23.7847 84.9267 23.7232 85.0395 23.6924C85.1626 23.6514 85.2959 23.6309 85.4498 23.6309C85.5318 23.6309 85.5933 23.6309 85.6651 23.6411C85.7267 23.6514 85.7882 23.6616 85.8498 23.6821C85.901 23.7027 85.9626 23.7232 86.0036 23.7437C86.0549 23.7642 86.0959 23.795 86.1369 23.8257L86.0651 23.9283C86.0549 23.9386 86.0344 23.9488 86.0241 23.9591C86.0036 23.9591 85.9831 23.9591 85.9626 23.9488C85.9421 23.9386 85.9113 23.9283 85.8908 23.9078C85.86 23.8975 85.8292 23.877 85.7882 23.8668C85.7472 23.8565 85.7062 23.8462 85.6446 23.836C85.5933 23.8257 85.5216 23.8257 85.4498 23.8257C85.3369 23.8257 85.2446 23.836 85.1523 23.8668C85.06 23.8975 84.9882 23.9386 84.9267 23.9898C84.8651 24.0411 84.8139 24.1129 84.7831 24.1847C84.7523 24.2668 84.7318 24.3488 84.7318 24.4514C84.7318 24.5539 84.7523 24.6462 84.7831 24.718C84.8139 24.8001 84.8651 24.8616 84.9267 24.9232C84.9882 24.9744 85.0703 25.0257 85.1626 25.0565C85.2549 25.0873 85.3575 25.0975 85.4703 25.0975C85.5626 25.0975 85.6446 25.0873 85.7164 25.077C85.7882 25.0565 85.86 25.036 85.9216 25.0052V24.6565H85.6139C85.5933 24.6565 85.5831 24.6565 85.5728 24.6462C85.5626 24.636 85.5523 24.6257 85.5523 24.6155V24.4924L86.1472 24.4719Z" fill="#58595B"/>
</svg>
