<svg width="23" height="21" viewBox="0 0 23 21" fill="none" xmlns="http://www.w3.org/2000/svg">
<path d="M18.3126 7.06569L18.3126 7.06571C18.6085 7.4297 18.5528 7.96455 18.1892 8.26127L18.1891 8.2614L13.7451 11.8734L13.7442 11.8741C13.1642 12.3344 12.4703 12.5648 11.777 12.5648C11.0858 12.5648 10.3969 12.3364 9.82091 11.8802L9.82023 11.8797L5.3353 8.2637L18.3126 7.06569ZM18.3126 7.06569C18.0159 6.70112 17.4809 6.6441 17.1157 6.94235L12.6808 10.5475C12.6807 10.5476 12.6805 10.5477 12.6804 10.5478C12.1498 10.9686 11.4087 10.9684 10.8825 10.5517C10.8823 10.5516 10.8822 10.5515 10.8821 10.5514L6.40176 6.93994L6.40168 6.93988C6.03656 6.6462 5.50193 6.70426 5.20641 7.06771L5.20608 7.06812M18.3126 7.06569L5.20608 7.06812M5.20608 7.06812C4.9126 7.43299 4.96915 7.96891 5.33523 8.26365L5.20608 7.06812ZM20.7336 18.9508L20.7336 18.9508C21.9394 17.748 22.6 16.0556 22.6 14.188V7.32C22.6 3.66934 20.0515 0.9 16.659 0.9H6.841C3.4485 0.9 0.9 3.66934 0.9 7.32V14.188C0.9 16.0556 1.56056 17.748 2.76638 18.9508L2.76642 18.9508C3.84974 20.0301 5.25337 20.6 6.822 20.6H16.675C18.2466 20.6 19.6512 20.0291 20.7336 18.9508ZM3.96666 17.7462L3.96659 17.7462C3.08802 16.8705 2.6 15.6083 2.6 14.188V7.32C2.6 4.57213 4.39081 2.6 6.841 2.6H16.659C19.1092 2.6 20.9 4.57213 20.9 7.32V14.188C20.9 15.6084 20.4129 16.8705 19.5334 17.7461L19.5333 17.7462C18.7777 18.5009 17.7926 18.8993 16.6781 18.9L16.6738 18.8996L16.6737 18.8996C16.6711 18.8994 16.6629 18.8987 16.6532 18.8995C16.6518 18.8996 16.6503 18.8998 16.6485 18.9H6.825C5.71022 18.9 4.72303 18.5016 3.96666 17.7462ZM16.6798 18.9002L16.6798 18.9002L16.6798 18.9002Z" fill="#94A3B8" stroke="#94A3B8" stroke-width="0.2"/>
</svg>
