<svg width="18" height="18" viewBox="0 0 18 18" fill="none" xmlns="http://www.w3.org/2000/svg">
<path d="M8.265 14.625H5.625C5.16 14.625 4.7475 14.61 4.38 14.5575C2.4075 14.34 1.875 13.41 1.875 10.875V7.125C1.875 4.59 2.4075 3.66 4.38 3.4425C4.7475 3.39 5.16 3.375 5.625 3.375H8.22" stroke="#26A59A" stroke-width="1.5" stroke-linecap="round" stroke-linejoin="round"/>
<path d="M11.2649 3.375H12.3749C12.8399 3.375 13.2524 3.39 13.6199 3.4425C15.5924 3.66 16.1249 4.59 16.1249 7.125V10.875C16.1249 13.41 15.5924 14.34 13.6199 14.5575C13.2524 14.61 12.8399 14.625 12.3749 14.625H11.2649" stroke="#26A59A" stroke-width="1.5" stroke-linecap="round" stroke-linejoin="round"/>
<path d="M11.25 1.5V16.5" stroke="#26A59A" stroke-width="1.5" stroke-linecap="round" stroke-linejoin="round"/>
<path d="M8.32083 9H8.32757" stroke="#26A59A" stroke-width="2" stroke-linecap="round" stroke-linejoin="round"/>
<path d="M5.32083 9H5.32757" stroke="#26A59A" stroke-width="2" stroke-linecap="round" stroke-linejoin="round"/>
</svg>
