<svg width="18" height="18" viewBox="0 0 18 18" fill="none" xmlns="http://www.w3.org/2000/svg">
<path d="M18 8.29688H16.8084C16.6469 6.46812 15.8573 4.77014 14.5436 3.45639C13.2299 2.14267 11.5319 1.35313 9.70312 1.19162V0H8.29688V1.19162C6.46812 1.35313 4.77014 2.14267 3.45639 3.45639C2.14267 4.77014 1.35313 6.46812 1.19162 8.29688H0V9.70312H1.19162C1.35313 11.5319 2.14267 13.2299 3.45642 14.5436C4.77014 15.8574 6.46815 16.6469 8.29691 16.8084V18H9.70316V16.8084C11.5319 16.6469 13.2299 15.8573 14.5436 14.5436C15.8574 13.2299 16.6469 11.5319 16.8084 9.70312H18V8.29688ZM9.70312 15.395V14.0625H8.29688V15.395C5.30996 15.0688 2.93115 12.69 2.60497 9.70312H3.9375V8.29688H2.60497C2.93115 5.30996 5.30996 2.93115 8.29688 2.60497V3.9375H9.70312V2.60497C12.69 2.93115 15.0688 5.30996 15.395 8.29688H14.0625V9.70312H15.395C15.0688 12.69 12.69 15.0688 9.70312 15.395ZM11.5908 8.06428L12.5557 7.49665L11.8427 6.28457L10.8558 6.8651C10.6033 6.66671 10.3031 6.52936 9.97791 6.46871H9.98557C9.98557 5.78914 9.56004 5.23825 9.03516 5.23825C8.51027 5.23825 8.08474 5.78914 8.08474 6.46871H8.09241C7.75441 6.53171 7.44356 6.678 7.18509 6.88915L6.15727 6.28457L5.44426 7.49665L6.47033 8.10021C6.45476 8.16522 6.44115 8.23085 6.42895 8.29688H5.37891V9.70312H6.42287C6.4383 9.79172 6.45655 9.87929 6.47789 9.96564L5.44426 10.5737L6.15727 11.7857L7.0811 11.2423C7.08296 11.2447 7.08469 11.2473 7.08655 11.2497C7.58721 11.8978 8.29744 12.2695 9.03516 12.2695C9.76482 12.2695 10.4675 11.9057 10.9671 11.2707L11.8427 11.7857L12.5557 10.5737L11.5831 10.0015C11.6083 9.90355 11.6298 9.80402 11.6474 9.70312H12.6914V8.29688H11.6413C11.6269 8.21862 11.61 8.1411 11.5908 8.06428ZM9.03516 10.8633C8.34912 10.8633 7.76953 10.0181 7.76953 9.01758C7.76953 8.75268 7.80852 8.4967 7.88537 8.25669C7.96521 8.00733 8.20037 7.83984 8.47051 7.83984H9.5998C9.86994 7.83984 10.1051 8.00736 10.1849 8.25666C10.2618 8.49667 10.3008 8.75264 10.3008 9.01758C10.3008 10.0181 9.7212 10.8633 9.03516 10.8633Z" fill="#26A59A"/>
</svg>
