<svg width="35" height="35" viewBox="0 0 35 35" fill="none" xmlns="http://www.w3.org/2000/svg">
<circle cx="17.5" cy="17.5" r="17.5" fill="white"/>
<path d="M18.9011 23.6668L18.5144 24.3095L18.9011 23.6668C18.347 23.3335 17.6542 23.3328 17.0995 23.6652L13.333 25.9217C12.9655 26.1419 12.5451 26.2582 12.1167 26.2582C10.8096 26.2582 9.75 25.1986 9.75 23.8915V11C9.75 9.20507 11.2051 7.75 13 7.75H23C24.7949 7.75 26.25 9.20507 26.25 11V23.8774C26.25 25.1922 25.1841 26.2582 23.8692 26.2582C23.4367 26.2582 23.0124 26.1404 22.6418 25.9174L18.9011 23.6668Z" stroke="#11565A" stroke-width="1.5"/>
<path d="M15 12H21" stroke="#11565A" stroke-width="1.5" stroke-linecap="round"/>
</svg>
