<svg width="18" height="18" viewBox="0 0 18 18" fill="none" xmlns="http://www.w3.org/2000/svg">
<path d="M12.72 4.62744C14.22 5.66994 15.255 7.32744 15.465 9.23994" stroke="#26A59A" stroke-width="1.5" stroke-linecap="round" stroke-linejoin="round"/>
<path d="M2.61743 9.27754C2.81243 7.37254 3.83243 5.71504 5.31743 4.66504" stroke="#26A59A" stroke-width="1.5" stroke-linecap="round" stroke-linejoin="round"/>
<path d="M6.14258 15.7051C7.01258 16.1476 8.00258 16.3951 9.04508 16.3951C10.0501 16.3951 10.9951 16.1701 11.8426 15.7576" stroke="#26A59A" stroke-width="1.5" stroke-linecap="round" stroke-linejoin="round"/>
<path d="M9.04496 5.77498C10.1965 5.77498 11.13 4.84149 11.13 3.68998C11.13 2.53847 10.1965 1.60498 9.04496 1.60498C7.89345 1.60498 6.95996 2.53847 6.95996 3.68998C6.95996 4.84149 7.89345 5.77498 9.04496 5.77498Z" stroke="#26A59A" stroke-width="1.5" stroke-linecap="round" stroke-linejoin="round"/>
<path d="M3.6226 14.94C4.77411 14.94 5.7076 14.0065 5.7076 12.855C5.7076 11.7035 4.77411 10.77 3.6226 10.77C2.47108 10.77 1.5376 11.7035 1.5376 12.855C1.5376 14.0065 2.47108 14.94 3.6226 14.94Z" stroke="#26A59A" stroke-width="1.5" stroke-linecap="round" stroke-linejoin="round"/>
<path d="M14.3775 14.94C15.529 14.94 16.4625 14.0065 16.4625 12.855C16.4625 11.7035 15.529 10.77 14.3775 10.77C13.226 10.77 12.2925 11.7035 12.2925 12.855C12.2925 14.0065 13.226 14.94 14.3775 14.94Z" stroke="#26A59A" stroke-width="1.5" stroke-linecap="round" stroke-linejoin="round"/>
</svg>
