<svg width="20" height="20" viewBox="0 0 20 20" fill="none" xmlns="http://www.w3.org/2000/svg">
<path d="M13.1249 18.1731C13.9055 18.1731 14.5383 17.5402 14.5383 16.7596C14.5383 15.979 13.9055 15.3461 13.1249 15.3461C12.3443 15.3461 11.7114 15.979 11.7114 16.7596C11.7114 17.5402 12.3443 18.1731 13.1249 18.1731Z" fill="#26A59A"/>
<path d="M6.66346 18.1731C7.44409 18.1731 8.07692 17.5402 8.07692 16.7596C8.07692 15.979 7.44409 15.3461 6.66346 15.3461C5.88283 15.3461 5.25 15.979 5.25 16.7596C5.25 17.5402 5.88283 18.1731 6.66346 18.1731Z" fill="#26A59A"/>
<path d="M3.90914 3.18234L3.7476 5.16118C3.71529 5.5408 4.01414 5.8558 4.39375 5.8558H16.7595C17.0988 5.8558 17.3814 5.59734 17.4057 5.25811C17.5107 3.82849 16.4203 2.66541 14.9907 2.66541H5.06414C4.98337 2.31003 4.82183 1.9708 4.57144 1.6881C4.1676 1.26003 3.60221 1.00964 3.02068 1.00964H1.61529C1.28414 1.00964 1.00952 1.28426 1.00952 1.61541C1.00952 1.94657 1.28414 2.22118 1.61529 2.22118H3.02068C3.27106 2.22118 3.50529 2.32618 3.67491 2.50387C3.84452 2.68964 3.92529 2.93195 3.90914 3.18234Z" fill="#26A59A"/>
<path d="M16.5658 7.06732H4.17576C3.83652 7.06732 3.56191 7.32578 3.5296 7.65694L3.23883 11.1704C3.12576 12.5516 4.20806 13.7308 5.58922 13.7308H14.5708C15.7823 13.7308 16.8484 12.7373 16.9373 11.5258L17.2038 7.75386C17.2361 7.38232 16.9454 7.06732 16.5658 7.06732Z" fill="#26A59A"/>
</svg>
