<svg width="17" height="16" viewBox="0 0 17 16" fill="none" xmlns="http://www.w3.org/2000/svg">
<path d="M7.80797 0.949597C8.0646 0.334827 8.93556 0.334826 9.1922 0.949597L10.7564 4.69671C10.859 4.9424 11.0841 5.1153 11.3479 5.15101L15.496 5.71243C16.1462 5.80043 16.3779 6.62192 15.8696 7.03673L12.677 9.64197C12.4555 9.82271 12.356 10.1136 12.4205 10.3921L13.4406 14.8002C13.5956 15.4703 12.8421 15.9783 12.279 15.5831L8.93094 13.2333C8.67237 13.0518 8.3278 13.0518 8.06922 13.2333L4.72111 15.5832C4.15808 15.9783 3.40448 15.4704 3.55956 14.8002L4.57955 10.3921C4.64399 10.1136 4.54452 9.82271 4.32305 9.64198L1.13055 7.03673C0.622225 6.62191 0.85397 5.80043 1.50414 5.71244L5.65222 5.15101C5.91605 5.1153 6.14118 4.9424 6.24374 4.69671L7.80797 0.949597Z" fill="#F2994A"/>
</svg>
