<svg width="40" height="40" viewBox="0 0 40 40" fill="none" xmlns="http://www.w3.org/2000/svg">
<circle opacity="0.1" cx="20" cy="20" r="20" fill="#26A59A"/>
<g clip-path="url(#clip0_62_2486)">
<path d="M24.5833 17.6831H13.8497C13.2156 17.6831 12.6996 18.1991 12.6996 18.8331V19.5998C12.6996 22.3353 14.2108 24.8163 16.6427 26.0745C16.8305 26.1711 17.0621 26.0982 17.1594 25.9096C17.2561 25.7218 17.872 25.4474 17.6834 25.3501C15.5075 24.2246 13.8497 22.0479 13.8497 19.5998L13.85 18.8334C13.6384 18.8334 13.85 18.6218 13.85 18.8334H24.5834C24.5834 18.6218 24.795 18.8334 24.5834 18.8334V19.6001C24.5834 22.0481 22.9266 24.2253 20.75 25.3501C20.5614 25.4474 21.1761 25.721 21.2727 25.9088C21.341 26.0407 21.4751 26.1166 21.6139 26.1166C21.6737 26.1166 21.7335 26.1028 21.7895 26.0736C24.2222 24.8163 25.7333 22.336 25.7333 19.5997V18.8331C25.7333 18.1991 25.2173 17.6831 24.5833 17.6831Z" fill="#26A59A"/>
<path d="M28.005 25.5465C27.9452 25.427 27.8056 25.3491 27.6508 25.3491H10.7837C10.6289 25.3491 10.4893 25.427 10.4295 25.5465C10.3697 25.6659 10.4027 25.8032 10.5123 25.8946L11.3718 26.6111C11.8793 27.0333 12.5525 27.2658 13.2693 27.2658H25.1637C25.8805 27.2658 26.5544 27.0333 27.0627 26.6111L27.9222 25.8946C28.0318 25.8032 28.0648 25.6659 28.005 25.5465ZM26.5 25.6692C26.1382 25.9706 25.6758 25.3498 25.1644 25.3498H13.2693C12.7579 25.3498 12.2952 26.196 11.9334 25.8946L11.7084 25.9884H26.7254L26.5 25.6692Z" fill="#26A59A"/>
<path d="M28.0587 19.4932C27.026 18.8293 25.3761 19.55 25.1913 19.6335C24.9988 19.7217 24.913 19.9486 25.0011 20.1419C25.0893 20.3351 25.1561 20.8382 25.35 20.75C25.7196 20.5821 26.9205 19.7685 27.5001 20.1419C27.7616 20.3098 27.65 20.6335 27.65 21.1334C27.65 22.6683 25.012 23.2049 23.8167 23.4334L23.4708 23.8779C23.263 23.9185 23.1281 24.1202 23.1687 24.328C23.2048 24.5104 23.365 24.6369 23.5444 24.6369C23.5689 24.6369 23.5934 24.6346 23.6187 24.6293L23.8879 24.5764C24.0887 24.538 28.8 23.6142 28.8 21.1332C28.8001 20.3619 28.5501 19.8106 28.0587 19.4932Z" fill="#26A59A"/>
<path d="M22.2012 14.4722C22.8245 13.6932 22.8245 12.4734 22.2012 11.6945C22.0685 11.5289 21.8286 11.5013 21.6622 11.6347C21.4966 11.7673 21.4698 12.008 21.6024 12.1736C21.9973 12.6666 21.9973 13.5 21.6017 13.9945C20.9776 14.7735 20.9776 15.9933 21.6017 16.7722C21.6776 16.8673 21.7887 16.9164 21.9014 16.9164C21.985 16.9164 22.0701 16.8888 22.1406 16.832C22.3062 16.6994 22.3331 16.4579 22.2004 16.2931C21.8048 15.8001 21.8048 14.9667 22.2012 14.4722Z" fill="#26A59A"/>
<path d="M19.8981 14.4722C20.5221 13.6933 20.5221 12.4735 19.8981 11.6945C19.7662 11.5289 19.5247 11.5021 19.3591 11.6347C19.1935 11.7674 19.1666 12.0089 19.2993 12.1737C19.6949 12.6666 19.6949 13.5001 19.2985 13.9946C18.6752 14.7735 18.6752 15.9933 19.2985 16.7723C19.3744 16.8673 19.4856 16.9164 19.5983 16.9164C19.6819 16.9164 19.7662 16.8888 19.8375 16.8321C20.0031 16.6994 20.03 16.4587 19.8973 16.2931C19.5025 15.8001 19.5025 14.9667 19.8981 14.4722Z" fill="#26A59A"/>
<path d="M17.6011 14.4729C18.2244 13.6939 18.2244 12.4742 17.6011 11.6952C17.4692 11.5296 17.2285 11.502 17.0621 11.6354C16.8973 11.7673 16.8705 12.0088 17.0023 12.1736C17.3972 12.6666 17.3972 13.5 17.0016 13.9945C16.3775 14.7735 16.3775 15.9932 17.0016 16.7722C17.0775 16.8673 17.1886 16.9164 17.3013 16.9164C17.3849 16.9164 17.47 16.8888 17.5405 16.8328C17.7061 16.7001 17.733 16.4586 17.6003 16.2938C17.2047 15.8 17.2047 14.9674 17.6011 14.4729Z" fill="#26A59A"/>
</g>
<defs>
<clipPath id="clip0_62_2486">
<rect width="18.4" height="18.4" fill="white" transform="translate(10.4 10.4)"/>
</clipPath>
</defs>
</svg>
